<?xml version="1.0" encoding="utf-8"?>
<!-- Generator: Adobe Illustrator 25.2.1, SVG Export Plug-In . SVG Version: 6.00 Build 0)  -->
<svg version="1.1" id="Layer_3" xmlns="http://www.w3.org/2000/svg" xmlns:xlink="http://www.w3.org/1999/xlink" x="0px" y="0px"
	 viewBox="0 0 512 512" style="enable-background:new 0 0 512 512;" xml:space="preserve">
<style type="text/css">
	.st0{fill:#F6DFC1;}
	.st1{fill:#F18B24;}
</style>
<circle class="st0" cx="372.6" cy="372.4" r="128"/>
<g>
	<g>
		<g>
			<path class="st1" d="M-464.8,240.1h-71V113.9h71c17.4,0,31.5-14.1,31.5-31.5s-14.1-31.5-31.5-31.5h-4.4
				c2.8-4.8,4.4-10.2,4.4-15.8c0-17.4-14.1-31.5-31.5-31.5h-39.4v-23.7c0-4.4-3.5-7.9-7.9-7.9h-31.5c-4.4,0-7.9,3.5-7.9,7.9V3.6
				h-39.5c-17.4,0-31.5,14.1-31.5,31.5c0,5.6,1.5,11,4.4,15.8h-4.4c-17.4,0-31.5,14.1-31.5,31.5s14.1,31.5,31.5,31.5h71v126.2h-71
				c-17.4,0-31.5,14.1-31.5,31.5s14.1,31.5,31.5,31.5h4.4c-2.8,4.8-4.4,10.2-4.4,15.8c0,17.4,14.1,31.5,31.5,31.5h39.5v23.7
				c0,4.4,3.5,7.9,7.9,7.9h31.5c4.4,0,7.9-3.5,7.9-7.9v-23.6h39.4c17.4,0,31.5-14.1,31.5-31.5c0-5.6-1.5-11-4.4-15.8h4.4
				c17.4,0,31.5-14.1,31.5-31.5C-433.2,254.2-447.4,240.1-464.8,240.1z M-567.3-12.2h15.8V3.6h-15.8V-12.2z M-622.5,19.3h126.2
				c8.7,0,15.8,7.1,15.8,15.8s-7.1,15.8-15.8,15.8h-126.2c-8.7,0-15.8-7.1-15.8-15.8S-631.2,19.3-622.5,19.3z M-654,98.2
				c-8.7,0-15.8-7.1-15.8-15.8s7.1-15.8,15.8-15.8h189.2c8.7,0,15.8,7.1,15.8,15.8s-7.1,15.8-15.8,15.8H-654z M-551.5,113.9v126.2
				h-15.8V113.9H-551.5z M-551.5,366.2h-15.8v-15.7h15.8V366.2z M-496.3,334.8h-126.2c-8.7,0-15.8-7.1-15.8-15.8
				c0-8.7,7.1-15.8,15.8-15.8h126.2c8.7,0,15.8,7.1,15.8,15.8S-487.6,334.8-496.3,334.8z M-464.8,287.4H-654
				c-8.7,0-15.8-7.1-15.8-15.8c0-8.7,7.1-15.8,15.8-15.8h189.2c8.7,0,15.8,7.1,15.8,15.8S-456.1,287.4-464.8,287.4z"/>
		</g>
	</g>
	<g>
		<g>
			<path class="st1" d="M-228.2,318.9h-71V192.8h71c17.4,0,31.5-14.1,31.5-31.5s-14.1-31.5-31.5-31.5h-4.4
				c2.8-4.8,4.4-10.2,4.4-15.8c0-17.4-14.1-31.5-31.5-31.5h-39.4V58.8c0-4.4-3.5-7.9-7.9-7.9h-31.5c-4.4,0-7.9,3.5-7.9,7.9v23.7
				h-39.4c-17.4,0-31.5,14.1-31.5,31.5c0,5.6,1.5,11,4.4,15.8h-4.4c-17.4,0-31.5,14.1-31.5,31.5s14.1,31.5,31.5,31.5h71V319h-71
				c-17.4,0-31.5,14.1-31.5,31.5s14.1,31.5,31.5,31.5h4.4c-2.8,4.8-4.4,10.2-4.4,15.8c0,17.4,14.1,31.5,31.5,31.5h39.4V453
				c0,4.4,3.5,7.9,7.9,7.9h31.5c4.4,0,7.9-3.5,7.9-7.9v-23.7h39.4c17.4,0,31.5-14.1,31.5-31.5c0-5.6-1.5-11-4.4-15.8h4.4
				c17.4,0,31.5-14.1,31.5-31.5S-210.8,318.9-228.2,318.9z M-330.7,66.6h15.7v15.8h-15.8L-330.7,66.6L-330.7,66.6z M-385.9,98.2
				h126.2c8.7,0,15.8,7.1,15.8,15.8s-7.1,15.8-15.8,15.8h-126.2c-8.7,0-15.8-7.1-15.8-15.8C-401.7,105.2-394.6,98.2-385.9,98.2z
				 M-417.5,177c-8.7,0-15.8-7.1-15.8-15.8s7.1-15.8,15.8-15.8h189.2c8.7,0,15.8,7.1,15.8,15.8s-7.1,15.8-15.8,15.8H-417.5z
				 M-315,192.8V319h-15.8V192.8H-315z M-315,445.1h-15.8v-15.8h15.8V445.1z M-259.8,413.6h-126.1c-8.7,0-15.8-7.1-15.8-15.8
				s7.1-15.8,15.8-15.8h126.2c8.7,0,15.8,7.1,15.8,15.8S-251.1,413.6-259.8,413.6z M-228.2,366.2h-189.3c-8.7,0-15.8-7.1-15.8-15.8
				s7.1-15.8,15.8-15.8h189.2c8.7,0,15.8,7.1,15.8,15.8S-219.5,366.2-228.2,366.2z"/>
		</g>
	</g>
</g>
<g>
	<g>
		<g>
			<path class="st1" d="M498.4,283.6c-3.5-24.6-22.9-43.9-47.4-47.4v-14.5c0-40.1-30.5-72.8-68-72.8c-36.4,0-66.9,31.7-68,70.6h0.5
				l-0.5,0.1v157.7c0,50.4-37.7,91.3-84,91.3s-84-41-84-91.3v-13.7c11.6,0,24-8.4,24-32v-20.1c51.3-13.1,88-57.2,88-107.2v-16.7h-16
				l-0.3-104.1c-0.1-19.3-13.9-35.7-32.9-39.2c-4.1-12.5-17.6-19.4-30.1-15.3C167.1,33,160.3,46.5,164.4,59
				c4.1,12.5,17.6,19.4,30.1,15.3c6.7-2.2,12.1-7.2,14.7-13.8c10.2,2.9,17.3,12.2,17.4,22.9l0.4,104.1h-16v16.9
				c-0.6,27.8-19.3,52-46,59.7c-14.3,4.5-29.7,4.5-44,0c-26.7-7.7-45.3-31.9-46-59.7v-16.9H51v-104c0-10.8,7.3-20.3,17.8-23.1
				c4.9,12.4,18.9,18.5,31.3,13.6s18.5-18.9,13.6-31.3S94.8,24.3,82.4,29.2c-6.7,2.6-11.9,8.1-14.1,15C49.1,47.5,35,64.1,35,83.5
				v104H19v16.6c0,50,36.7,94.1,88,107.2v20.1c0,23.6,12.4,32,24,32v13.7c0,59.2,44.9,107.3,100,107.3s100-48.2,100-107.3V219.9
				c0.8-30.4,24.1-55.1,52-55.1c28.7,0,52,25.5,52,56.8v14.5c-30.6,4.4-51.8,32.8-47.4,63.4s32.8,51.8,63.4,47.4
				S502.8,314.2,498.4,283.6z M187,59.5c-4.4,0-8-3.6-8-8s3.6-8,8-8s8,3.6,8,8S191.4,59.5,187,59.5z M91,43.5c4.4,0,8,3.6,8,8
				s-3.6,8-8,8s-8-3.6-8-8S86.6,43.5,91,43.5z M35,204.2v-0.6h24v0.9c0.6,34.8,23.7,65.1,57.1,74.9c17.5,5.5,36.3,5.5,53.7,0
				c33.4-9.8,56.5-40.1,57.2-74.9v-0.9h16v0.6c0,44.5-34.3,83.7-81.6,93.1c-11.1,2.2-22.5,2.8-33.8,1.7c-3.7-0.4-7.4-0.9-11-1.7
				C69.3,287.8,35,248.7,35,204.2z M131,347.5c-7.2,0-8-11.2-8-16v-17c0.6,0.1,1.3,0.1,1.9,0.2c0.8,0.1,1.6,0.2,2.4,0.2
				c3.8,0.3,7.6,0.6,11.4,0.6h0.4c3.8,0,7.6-0.2,11.4-0.6c0.8-0.1,1.6-0.1,2.5-0.2c0.6-0.1,1.3-0.1,1.9-0.2v17c0,4.8-0.8,16-8,16
				H131z M443,331.5c-22.1,0-40-17.9-40-40s17.9-40,40-40s40,17.9,40,40C483,313.6,465.1,331.5,443,331.5z"/>
		</g>
	</g>
	<g>
		<g>
			<path class="st1" d="M443,267.5c-13.3,0-24,10.7-24,24s10.7,24,24,24s24-10.7,24-24S456.3,267.5,443,267.5z M443,299.5
				c-4.4,0-8-3.6-8-8s3.6-8,8-8s8,3.6,8,8S447.4,299.5,443,299.5z"/>
		</g>
	</g>
</g>
</svg>
