<?xml version="1.0" encoding="utf-8"?>
<!-- Generator: Adobe Illustrator 25.2.1, SVG Export Plug-In . SVG Version: 6.00 Build 0)  -->
<svg version="1.1" id="Layer_3" xmlns="http://www.w3.org/2000/svg" xmlns:xlink="http://www.w3.org/1999/xlink" x="0px" y="0px"
	 viewBox="0 0 512 512" style="enable-background:new 0 0 512 512;" xml:space="preserve">
<style type="text/css">
	.st0{fill:#F6DFC1;}
	.st1{fill:#F18B24;}
</style>
<circle class="st0" cx="372.6" cy="372.4" r="128"/>
<g>
	<g>
		<g>
			<path class="st1" d="M-464.8,240.1h-71V113.9h71c17.4,0,31.5-14.1,31.5-31.5s-14.1-31.5-31.5-31.5h-4.4
				c2.8-4.8,4.4-10.2,4.4-15.8c0-17.4-14.1-31.5-31.5-31.5h-39.4v-23.7c0-4.4-3.5-7.9-7.9-7.9h-31.5c-4.4,0-7.9,3.5-7.9,7.9V3.6
				h-39.5c-17.4,0-31.5,14.1-31.5,31.5c0,5.6,1.5,11,4.4,15.8h-4.4c-17.4,0-31.5,14.1-31.5,31.5s14.1,31.5,31.5,31.5h71v126.2h-71
				c-17.4,0-31.5,14.1-31.5,31.5s14.1,31.5,31.5,31.5h4.4c-2.8,4.8-4.4,10.2-4.4,15.8c0,17.4,14.1,31.5,31.5,31.5h39.5v23.7
				c0,4.4,3.5,7.9,7.9,7.9h31.5c4.4,0,7.9-3.5,7.9-7.9v-23.6h39.4c17.4,0,31.5-14.1,31.5-31.5c0-5.6-1.5-11-4.4-15.8h4.4
				c17.4,0,31.5-14.1,31.5-31.5C-433.2,254.2-447.4,240.1-464.8,240.1z M-567.3-12.2h15.8V3.6h-15.8V-12.2z M-622.5,19.3h126.2
				c8.7,0,15.8,7.1,15.8,15.8s-7.1,15.8-15.8,15.8h-126.2c-8.7,0-15.8-7.1-15.8-15.8S-631.2,19.3-622.5,19.3z M-654,98.2
				c-8.7,0-15.8-7.1-15.8-15.8s7.1-15.8,15.8-15.8h189.2c8.7,0,15.8,7.1,15.8,15.8s-7.1,15.8-15.8,15.8H-654z M-551.5,113.9v126.2
				h-15.8V113.9H-551.5z M-551.5,366.2h-15.8v-15.7h15.8V366.2z M-496.3,334.8h-126.2c-8.7,0-15.8-7.1-15.8-15.8
				c0-8.7,7.1-15.8,15.8-15.8h126.2c8.7,0,15.8,7.1,15.8,15.8S-487.6,334.8-496.3,334.8z M-464.8,287.4H-654
				c-8.7,0-15.8-7.1-15.8-15.8c0-8.7,7.1-15.8,15.8-15.8h189.2c8.7,0,15.8,7.1,15.8,15.8S-456.1,287.4-464.8,287.4z"/>
		</g>
	</g>
	<g>
		<g>
			<path class="st1" d="M-228.2,318.9h-71V192.8h71c17.4,0,31.5-14.1,31.5-31.5s-14.1-31.5-31.5-31.5h-4.4
				c2.8-4.8,4.4-10.2,4.4-15.8c0-17.4-14.1-31.5-31.5-31.5h-39.4V58.8c0-4.4-3.5-7.9-7.9-7.9h-31.5c-4.4,0-7.9,3.5-7.9,7.9v23.7
				h-39.4c-17.4,0-31.5,14.1-31.5,31.5c0,5.6,1.5,11,4.4,15.8h-4.4c-17.4,0-31.5,14.1-31.5,31.5s14.1,31.5,31.5,31.5h71V319h-71
				c-17.4,0-31.5,14.1-31.5,31.5s14.1,31.5,31.5,31.5h4.4c-2.8,4.8-4.4,10.2-4.4,15.8c0,17.4,14.1,31.5,31.5,31.5h39.4V453
				c0,4.4,3.5,7.9,7.9,7.9h31.5c4.4,0,7.9-3.5,7.9-7.9v-23.7h39.4c17.4,0,31.5-14.1,31.5-31.5c0-5.6-1.5-11-4.4-15.8h4.4
				c17.4,0,31.5-14.1,31.5-31.5S-210.8,318.9-228.2,318.9z M-330.7,66.6h15.7v15.8h-15.8L-330.7,66.6L-330.7,66.6z M-385.9,98.2
				h126.2c8.7,0,15.8,7.1,15.8,15.8s-7.1,15.8-15.8,15.8h-126.2c-8.7,0-15.8-7.1-15.8-15.8C-401.7,105.2-394.6,98.2-385.9,98.2z
				 M-417.5,177c-8.7,0-15.8-7.1-15.8-15.8s7.1-15.8,15.8-15.8h189.2c8.7,0,15.8,7.1,15.8,15.8s-7.1,15.8-15.8,15.8H-417.5z
				 M-315,192.8V319h-15.8V192.8H-315z M-315,445.1h-15.8v-15.8h15.8V445.1z M-259.8,413.6h-126.1c-8.7,0-15.8-7.1-15.8-15.8
				s7.1-15.8,15.8-15.8h126.2c8.7,0,15.8,7.1,15.8,15.8S-251.1,413.6-259.8,413.6z M-228.2,366.2h-189.3c-8.7,0-15.8-7.1-15.8-15.8
				s7.1-15.8,15.8-15.8h189.2c8.7,0,15.8,7.1,15.8,15.8S-219.5,366.2-228.2,366.2z"/>
		</g>
	</g>
</g>
<g>
	<path class="st1" d="M478.3,374.7v-56.6c0-5.7-1.2-11.2-3.7-16.3l-15.4-38.6c-5.8-14.4-19.5-23.7-35-23.7h-1.6
		c2.1-9.3,1.3-19.1-2.5-28.2c-4.7-11.3-13.7-20.3-24.7-25.2c-0.2-12.1-5.1-23.8-13.8-32.5c-8.7-8.7-20.4-13.5-32.5-13.8
		c-4.8-11.1-13.8-20-25.2-24.7c-11.3-4.7-24-4.7-35.3-0.3c-8.7-8.4-20.5-13.2-32.7-13.2c-12.2,0-24,4.8-32.7,13.2
		c-11.3-4.4-24-4.4-35.3,0.3c-11.3,4.7-20.3,13.7-25.2,24.7c-24.8,0.1-46.2,21.5-46.3,46.3c-11.1,4.8-20,13.8-24.7,25.2
		c-3.8,9.1-4.6,18.9-2.5,28.2h-1.6c-16.5,0-30.8,10.5-35.9,26.1l-15.4,38.5c-1.8,4.6-2.8,9.3-2.8,14v56.6
		c-29.5,10.9-22.4,54.3,9.4,54.9h425.9C500.8,429,507.8,385.6,478.3,374.7L478.3,374.7z M109.3,218.6c3.4-8.3,10.7-14.5,19.4-16.6
		c4.7-1.2,7.8-5.8,7.1-10.6c-1.4-9,1.5-17.9,7.9-24.3c6.3-6.3,15.4-9.3,24.3-7.9c4.8,0.7,9.4-2.3,10.6-7.1c2.1-8.7,8.4-16,16.6-19.4
		c8.3-3.4,17.8-2.7,25.5,2c4.2,2.5,9.6,1.5,12.5-2.5c5.4-7.3,13.7-11.6,22.8-11.6c9,0,17.5,4.3,22.8,11.6c2.9,3.9,8.3,5,12.5,2.5
		c7.8-4.7,17.1-5.4,25.5-2c8.4,3.5,14.5,10.6,16.6,19.4c1.2,4.7,5.7,7.8,10.6,7.1c8.9-1.4,18,1.6,24.3,7.9
		c6.3,6.3,9.3,15.4,7.9,24.3c-0.7,4.8,2.3,9.4,7.1,10.6c8.7,2.1,16,8.4,19.4,16.6c2.8,6.8,2.9,14.2,0.3,21H109
		C106.4,232.8,106.5,225.4,109.3,218.6L109.3,218.6z M53.9,311.1l15.5-38.8c0.1-0.2,0.2-0.4,0.2-0.7c2.5-7.9,9.7-13.2,18.1-13.2
		h336.5c7.7,0,14.6,4.7,17.5,11.9l15.6,38.9c0.1,0.2,0.2,0.4,0.3,0.6c1.3,2.6,1.9,5.4,1.9,8.3v55h-407v-55
		C52.5,315.8,53,313.5,53.9,311.1L53.9,311.1z M468.9,410.8H43.1c-12.5-0.5-12.5-18.3,0-18.8h425.9
		C481.4,392.5,481.4,410.3,468.9,410.8z"/>
	<path class="st1" d="M177.8,330.4c0.4,32.4,43.4,42.2,58,13.6h40.4c5.1,10.2,15.6,17,27.4,17c22.9,0.3,38-25.2,26.9-45.2l0-0.1
		l0-0.1c11.1-19.9-4.1-45.5-26.9-45.2c-11.8,0-22.4,6.8-27.4,17h-40.4c-5.1-10.2-15.6-17-27.4-17c-22.9-0.3-38,25.2-26.9,45.2l0,0.1
		l0,0.1C179.1,320.3,177.8,325.3,177.8,330.4L177.8,330.4z M198.3,307.2l-0.3-0.5c-4.3-7.6,1.6-17.5,10.3-17.3
		c5.6,0,10.4,4,11.5,9.4c0.9,4.4,4.7,7.6,9.2,7.6h53.7c4.5,0,8.4-3.2,9.2-7.6c1.1-5.5,5.8-9.4,11.5-9.4c8.6-0.1,14.7,9.8,10.3,17.3
		l-0.3,0.5c-3.4,5.3-3.4,11.7,0,17.1l0.3,0.5c4.3,7.5-1.7,17.5-10.3,17.3c-5.7,0-10.4-3.9-11.5-9.4c-0.9-4.4-4.7-7.6-9.2-7.6h-53.7
		c-4.5,0-8.4,3.2-9.2,7.6c-1.1,5.5-5.9,9.4-11.5,9.4c-8.7,0.2-14.6-9.8-10.3-17.3l0.3-0.5C201.7,318.9,201.7,312.5,198.3,307.2
		L198.3,307.2z"/>
	<path class="st1" d="M187.2,176.2L187.2,176.2c-5.2,0-9.4,4.2-9.4,9.4c0.5,12.5,18.4,12.5,18.8,0
		C196.6,180.4,192.4,176.2,187.2,176.2z"/>
	<path class="st1" d="M249.4,190.3L249.4,190.3c-5.2,0-9.4,4.2-9.4,9.4c0.5,12.5,18.4,12.5,18.8,0
		C258.8,194.5,254.6,190.3,249.4,190.3z"/>
	<path class="st1" d="M303.1,156.4L303.1,156.4c-5.2,0-9.4,4.2-9.4,9.4c0.5,12.5,18.4,12.5,18.8,0
		C312.5,160.6,308.3,156.4,303.1,156.4z"/>
	<path class="st1" d="M343.6,196L343.6,196c-5.2,0-9.4,4.2-9.4,9.4c0.5,12.5,18.4,12.5,18.8,0C353,200.2,348.8,196,343.6,196z"/>
</g>
</svg>
