<?xml version="1.0" encoding="utf-8"?>
<!-- Generator: Adobe Illustrator 25.0.0, SVG Export Plug-In . SVG Version: 6.00 Build 0)  -->
<svg version="1.1" id="Capa_1" xmlns="http://www.w3.org/2000/svg" xmlns:xlink="http://www.w3.org/1999/xlink" x="0px" y="0px"
	 viewBox="0 0 496 496" style="enable-background:new 0 0 496 496;" xml:space="preserve">
<style type="text/css">
	.st0{fill:#F6DFC1;}
	.st1{fill:#F18B24;stroke:#F18B24;stroke-width:4.185;stroke-miterlimit:10;}
</style>
<circle class="st0" cx="360" cy="358.9" r="128"/>
<g>
	<path class="st1" d="M70.8,78.8c0,30.7,24.9,55.6,55.6,55.6c30.7,0,55.6-24.9,55.6-55.6c0-30.7-24.9-55.6-55.6-55.6c0,0,0,0,0,0
		C95.7,23.2,70.8,48.1,70.8,78.8z M167.4,78.8c0,22.6-18.3,41-41,41c-22.6,0-41-18.3-41-41c0-22.6,18.3-41,41-41c0,0,0,0,0,0
		C149.1,37.9,167.4,56.2,167.4,78.8L167.4,78.8z"/>
	<path class="st1" d="M17.8,310.7h18.8v152.5c0.2,4.2,3.6,7.5,7.7,7.5h406.7c4.1-0.1,7.3-3.5,7.2-7.5V310.7h19.9
		c4,0,7.3-3.2,7.3-7.2c0,0,0,0,0,0v-56.3c0-4.1-3.2-7.5-7.3-7.6H452v-75.8c0-0.5,0-0.9-0.1-1.4c0.1-0.4,0.1-0.9,0.1-1.4V79.4
		c0-4-3.2-7.2-7.1-7.2c0,0-0.1,0-0.1,0H336.2c-4.1-0.1-7.5,3.1-7.6,7.2v81.7c0,0.5,0,0.9,0.1,1.4c-0.1,0.4-0.1,0.9-0.1,1.4v75.8
		h-8.4v-75.8c0-4-3.6-6.8-7.6-6.8h-86c-4,0-7.8,2.8-7.8,6.8v75.8h-2.1c-4.4-40-38.2-70.3-78.5-70.1h-24.4
		c-40.2-0.2-74.1,30.1-78.5,70.1H17.8c-4.1,0.1-7.3,3.5-7.3,7.6v56.3C10.5,307.5,13.8,310.7,17.8,310.7
		C17.8,310.7,17.8,310.7,17.8,310.7z M443.6,456.1H51.3V310.7h392.3V456.1z M377.7,86.8h26.2v20.9h-26.2V86.8z M343.2,86.8h19.9
		v28.3c0,4,2.8,7.3,6.8,7.3h41.2c4.1,0,7.4-3.2,7.5-7.3V86.8h18.8v70.1h-94.2V86.8z M403.9,171.6v20.9h-26.2v-20.9H403.9z
		 M343.2,171.6h19.9v27.9c0,4,2.8,7.7,6.8,7.7h41.2c4.1-0.1,7.4-3.5,7.5-7.7v-27.9h18.8v68h-94.2V171.6z M261.6,171.6h15.7v20.9
		h-15.7V171.6z M233.4,171.6H247v27.9c0.1,4.2,3.5,7.5,7.6,7.7h29.9c4.1-0.1,7.4-3.5,7.4-7.7v-27.9h13.6v68h-72.2V171.6z
		 M68.1,202.9c12.1-12.1,28.5-18.9,45.6-18.8h24.4c32.2-0.2,59.4,23.6,63.7,55.5H50C51.9,225.7,58.2,212.8,68.1,202.9z M25.1,254.2
		h445.7v41.9H25.1V254.2z"/>
</g>
</svg>
