<?xml version="1.0" encoding="utf-8"?>
<!-- Generator: Adobe Illustrator 24.3.0, SVG Export Plug-In . SVG Version: 6.00 Build 0)  -->
<svg version="1.1" id="레이어_1" xmlns="http://www.w3.org/2000/svg" xmlns:xlink="http://www.w3.org/1999/xlink" x="0px"
	 y="0px" viewBox="0 0 680.4 680.4" style="enable-background:new 0 0 680.4 680.4;" xml:space="preserve">
<style type="text/css">
	.st0{fill:#FFBB61;}
	.st1{fill:#CC6E2E;}
	.st2{fill:#B3450B;}
	.st3{fill:#FF6C1E;}
	.st4{fill:#52B8D9;}
	.st5{fill:#1FFFF7;stroke:#000000;stroke-width:0.8658;stroke-miterlimit:10;}
	.st6{fill:#88FFF6;}
	.st7{fill:#F9DD9D;}
	.st8{fill:#F8F3F3;}
	.st9{fill:#63312D;}
	.st10{fill:#FFD5B0;}
	.st11{fill:#82D9FF;}
	.st12{fill:#F9A287;}
	.st13{fill:#B3450B;stroke:#000000;stroke-width:0.8658;stroke-miterlimit:10;}
	.st14{fill:#FF7E38;stroke:#000000;stroke-width:0.8658;stroke-miterlimit:10;}
	.st15{fill:#FF6C1E;stroke:#000000;stroke-width:0.8658;stroke-miterlimit:10;}
	.st16{fill:#00B3AC;stroke:#000000;stroke-width:0.8658;stroke-miterlimit:10;}
	.st17{fill:#CAF4FF;}
	.st18{fill:#FFEECF;}
	.st19{fill:#EEEEEE;}
	.st20{fill:#EFC36A;}
	.st21{fill:#AF5B48;}
	.st22{fill:#FFC8BB;}
	.st23{fill:#0277BD;}
	.st24{fill:#84DBFF;}
	.st25{fill:#DB785A;}
	.st26{fill:#D1D1D1;}
</style>
<circle class="st0" cx="338" cy="317.3" r="314.8"/>
<path class="st4" d="M562.6,674.9H168.7c-8.8,0-16-7.2-16-16V422.1c0-8.8,7.2-16,16-16h393.9c8.8,0,16,7.2,16,16v236.8
	C578.5,667.7,571.4,674.9,562.6,674.9z"/>
<path class="st2" d="M562.6,678.9H168.7c-11,0-20-9-20-20V422.1c0-11,9-20,20-20h393.9c11,0,20,9,20,20v236.8
	C582.5,669.9,573.6,678.9,562.6,678.9z M168.7,410.1c-6.6,0-12,5.4-12,12v236.8c0,6.6,5.4,12,12,12h393.9c6.6,0,12-5.4,12-12V422.1
	c0-6.6-5.4-12-12-12H168.7z"/>
<path class="st5" d="M526.4,674.9H132.5c-8.8,0-16-7.2-16-16V422.1c0-8.8,7.2-16,16-16h393.9c8.8,0,16,7.2,16,16v236.8
	C542.4,667.7,535.2,674.9,526.4,674.9z"/>
<path class="st17" d="M132.5,430.1c0-4.4,3.6-8,8-8h401.9c0-8.8-7.2-16-16-16H132.5c-8.8,0-16,7.2-16,16v236.8c0,8.8,7.2,16,16,16
	V430.1z"/>
<path class="st2" d="M526.4,678.9H132.5c-11,0-20-9-20-20V422.1c0-11,9-20,20-20h393.9c11,0,20,9,20,20v236.8
	C546.4,669.9,537.4,678.9,526.4,678.9z M132.5,410.1c-6.6,0-12,5.4-12,12v236.8c0,6.6,5.4,12,12,12h393.9c6.6,0,12-5.4,12-12V422.1
	c0-6.6-5.4-12-12-12H132.5z"/>
<path class="st7" d="M364.4,369.9h-44.3c-7.8,0-15.2,3.1-20.7,8.6l-30.6,30.9c-8,8-8,21,0,29.1c8.1,8.2,21.3,8.1,29.4-0.1l28.1-28.6
	h38.2l64.6,64.6l37-34.3L381,353.3L364.4,369.9z"/>
<path class="st7" d="M197.4,533.6c-7.3-7.3-7.2-19,0-26.3l14.3-14.3c7.3-7.3,19-7.2,26.3,0c7.2,7.3,7.2,19,0,26.3l-14.3,14.3
	C216.5,540.9,204.7,540.9,197.4,533.6z"/>
<path class="st7" d="M221.3,562.4c-7.3-7.3-7.2-19,0-26.3l16.7-16.7c7.3-7.2,19-7.2,26.3,0c7.3,7.3,7.2,19,0,26.3l-16.7,16.7
	C240.3,569.6,228.6,569.6,221.3,562.4z"/>
<path class="st7" d="M247.6,588.7c-7.3-7.3-7.2-19,0-26.3l16.7-16.7c7.3-7.2,19-7.2,26.3,0c7.3,7.3,7.2,19,0,26.3l-16.7,16.7
	C266.6,596,254.8,596,247.6,588.7z"/>
<path class="st7" d="M282.5,606.4c-7.2-7.3-7.2-19,0-26.3l8.1-8c7.3-7.2,19-7.2,26.3,0c7.2,7.3,7.2,19,0,26.3l-8.1,8
	C301.6,613.6,289.8,613.6,282.5,606.4z"/>
<path class="st7" d="M455.1,500.4l-42.1-42l-44.5-44.5l-70.7-37.4l-24.7-18.6L192,436.6l30.6,51.1l97.5,97.5l16,14.1
	c7.5,7.5,19.7,7.5,27.3,0c7.5-7.5,7.5-19.7,0-27.3l-5.5-5.5l14.3,14.3c7.5,7.5,19.7,7.5,27.3,0c7.5-7.5,7.5-19.7,0-27.3l6,6
	c7.5,7.5,19.7,7.5,27.3,0c7.5-7.5,7.5-19.7,0-27.3l-4.6-4.6c7.5,7.5,19.7,7.5,27.3,0C462.7,520.1,462.6,507.9,455.1,500.4z"/>
<g>
	<path class="st2" d="M429,478.3c-1,0-2-0.4-2.8-1.2l-63.4-63.4h-34.9L301,441.2c-4.6,4.7-10.8,7.3-17.5,7.4c0,0,0,0-0.1,0
		c-6.6,0-12.8-2.6-17.5-7.3c-9.5-9.6-9.5-25.1,0-34.7l30.6-30.9c6.2-6.2,14.8-9.8,23.6-9.8h42.7l15.4-15.4c0.8-0.7,1.8-1,2.8-1.2
		c1.1,0,2.1,0.4,2.8,1.2l85,86.7c0.7,0.8,1.2,1.8,1.1,2.9c0,1.1-0.5,2.1-1.3,2.8l-37,34.3C431,478,430,478.3,429,478.3z
		 M326.2,405.8h38.2c1.1,0,2.1,0.4,2.8,1.2l61.8,61.8l31.1-28.9L381,359l-13.7,13.7c-0.7,0.7-1.8,1.2-2.8,1.2h-44.3
		c-6.7,0-13.2,2.7-17.9,7.5l-30.6,30.9c-6.4,6.5-6.4,17,0,23.4c3.2,3.2,7.3,4.9,11.8,4.9h0.1c4.5,0,8.7-1.8,11.8-5l28.1-28.6
		C324.1,406.2,325.1,405.8,326.2,405.8z"/>
	<path class="st2" d="M349.6,609c-6.2,0-12-2.4-16.4-6.8l-15.8-13.9l5.3-6l15.9,14.1c3.1,3,6.9,4.6,11,4.6h0c4.1,0,7.9-1.6,10.8-4.5
		c2.9-2.9,4.5-6.7,4.5-10.8c0-4.1-1.6-7.9-4.5-10.8l-31.9-31.8l5.7-5.7l31.9,31.8c4.4,4.4,6.8,10.2,6.8,16.5
		c0,6.2-2.4,12.1-6.8,16.5C361.7,606.5,355.9,608.8,349.6,609z"/>
	<path class="st2" d="M385.7,590.5c-6,0-11.9-2.3-16.4-6.8l-31.9-31.8l5.7-5.7l31.9,31.8c5.9,5.9,15.6,5.9,21.6,0
		c5.9-6,5.9-15.7,0-21.6l-40.7-40.6l5.7-5.7l40.7,40.6c4.4,4.4,6.8,10.2,6.8,16.4c0,6.2-2.4,12.1-6.8,16.5
		C397.6,588.2,391.7,590.5,385.7,590.5z"/>
	<path class="st2" d="M418.9,569.2c-6.2,0-12-2.4-16.4-6.8l-31.9-31.8l5.7-5.7l31.9,31.8c2.9,2.9,6.7,4.5,10.8,4.5h0
		c4.1,0,7.9-1.6,10.8-4.5c5.9-6,5.9-15.7,0-21.6l-31.9-31.8l5.7-5.7l31.9,31.8c4.4,4.4,6.8,10.2,6.8,16.4c0,6.2-2.4,12.1-6.8,16.5
		C431,566.7,425.1,569.2,418.9,569.2C418.9,569.2,418.9,569.2,418.9,569.2z"/>
	<path class="st2" d="M441.5,537.3c-6.2,0-12-2.4-16.4-6.8l-42.1-42l5.6-5.7l42.1,42c5.9,5.9,15.6,5.9,21.6,0
		c2.9-2.9,4.5-6.7,4.5-10.8c0-4.1-1.6-7.9-4.5-10.8l-42.1-42l5.7-5.7l42.1,42c9.1,9.1,9.1,23.8,0,32.9
		C453.6,534.8,447.7,537.3,441.5,537.3C441.5,537.3,441.5,537.3,441.5,537.3z"/>
	<path class="st2" d="M219.2,489.8l-30.6-51.1c-0.9-1.6-0.7-3.6,0.6-4.9l81.2-78.8c1.4-1.4,3.6-1.5,5.2-0.3l24.7,18.6l-4.8,6.4
		l-21.9-16.5L197,437.3l29,48.4L219.2,489.8z"/>
	<path class="st2" d="M210.6,543.1C210.6,543.1,210.6,543.1,210.6,543.1c-6.1,0-11.7-2.4-16-6.6c-4.3-4.3-6.6-9.9-6.6-16
		c0-6,2.4-11.7,6.6-16l14.3-14.3c8.8-8.8,23.2-8.8,32,0c4.3,4.3,6.6,9.9,6.6,16c0,6-2.4,11.7-6.6,16l-14.3,14.3
		C222.3,540.8,216.6,543.1,210.6,543.1z M224.9,491.6c-3.9,0-7.6,1.5-10.3,4.3l-14.3,14.3c-2.8,2.7-4.3,6.4-4.3,10.3
		c0,3.9,1.5,7.6,4.3,10.3c2.8,2.8,6.4,4.3,10.3,4.3h0c3.9,0,7.5-1.5,10.3-4.3l14.3-14.3c2.8-2.7,4.3-6.4,4.3-10.3
		c0-3.9-1.5-7.6-4.3-10.3C232.5,493.1,228.9,491.6,224.9,491.6C225,491.6,225,491.6,224.9,491.6z"/>
	<path class="st2" d="M234.5,571.8C234.5,571.8,234.5,571.8,234.5,571.8c-6.1,0-11.7-2.4-16-6.6c-4.3-4.3-6.6-10-6.6-16
		c0-6,2.4-11.7,6.6-16l16.7-16.7c4.3-4.3,9.9-6.6,16-6.6h0c6,0,11.7,2.4,16,6.6c4.3,4.3,6.6,9.9,6.6,16c0,6-2.4,11.7-6.6,16
		l-16.7,16.7C246.2,569.5,240.5,571.8,234.5,571.8z M224.1,559.5c2.7,2.8,6.4,4.3,10.3,4.3h0c3.9,0,7.6-1.5,10.3-4.3l16.7-16.7
		c2.8-2.7,4.3-6.4,4.3-10.3c0-3.9-1.5-7.6-4.3-10.3c-2.8-2.8-6.4-4.3-10.3-4.3c0,0,0,0,0,0c-3.9,0-7.5,1.5-10.3,4.3l-16.7,16.7
		C218.5,544.6,218.5,553.8,224.1,559.5l-2.8,2.8L224.1,559.5z"/>
	<path class="st2" d="M260.7,598.1c-5.8,0-11.6-2.2-16-6.6h0c-4.3-4.3-6.6-9.9-6.6-16c0-6,2.4-11.7,6.6-16l16.7-16.7
		c4.3-4.3,9.9-6.6,16-6.6h0c6,0,11.7,2.4,16,6.6c4.3,4.3,6.6,9.9,6.6,16c0,6-2.4,11.7-6.6,16l-16.7,16.7
		C272.3,595.9,266.5,598.1,260.7,598.1z M277.5,544.3c-3.9,0-7.5,1.5-10.3,4.3l-16.7,16.7c-2.8,2.8-4.3,6.4-4.3,10.3
		c0,3.9,1.5,7.6,4.3,10.3h0c5.7,5.7,14.9,5.7,20.6,0l16.7-16.7c2.8-2.7,4.3-6.4,4.3-10.3c0-3.9-1.5-7.6-4.3-10.3
		C285.1,545.8,281.4,544.3,277.5,544.3C277.5,544.3,277.5,544.3,277.5,544.3z"/>
	<path class="st2" d="M295.7,615.8C295.7,615.8,295.7,615.8,295.7,615.8c-6.1,0-11.7-2.4-16-6.6c-4.3-4.3-6.6-9.9-6.6-16
		c0-6,2.4-11.7,6.6-16l8.1-8c4.3-4.3,9.9-6.6,16-6.6h0c6,0,11.7,2.4,16,6.6c4.3,4.3,6.6,9.9,6.6,16c0,6-2.4,11.7-6.6,16l-8.1,8
		C307.4,613.5,301.7,615.8,295.7,615.8z M303.7,570.6c-3.9,0-7.5,1.5-10.3,4.3l-8.1,8c-2.8,2.8-4.3,6.4-4.3,10.3
		c0,3.9,1.5,7.6,4.3,10.3h0c2.8,2.8,6.4,4.3,10.3,4.3h0c3.9,0,7.6-1.5,10.3-4.3l8.1-8c2.8-2.7,4.3-6.4,4.3-10.3
		c0-3.9-1.5-7.6-4.3-10.3C311.3,572.1,307.7,570.6,303.7,570.6C303.7,570.6,303.7,570.6,303.7,570.6z"/>
</g>
<path class="st3" d="M287.7,343.6L180.4,448L116.5,385l107.3-104.4L287.7,343.6z"/>
<path class="st8" d="M433.2,280.5l104.9,106.9l-63,61.9L370.2,342.4L433.2,280.5z"/>
<path class="st2" d="M180.4,452c-1,0-2-0.4-2.8-1.2l-63.8-63.1c-0.8-0.7-1.2-1.8-1.2-2.9c0-1.1,0.4-2.1,1.2-2.8l107.3-104.4
	c1.5-1.5,4-1.5,5.6,0l63.8,63.1c0.8,0.8,1.2,1.8,1.2,2.9c0,1.1-0.4,2.1-1.2,2.8L183.2,450.9C182.4,451.7,181.4,452,180.4,452z
	 M122.3,385l58.2,57.5L282,343.6l-58.2-57.5L122.3,385z"/>
<path class="st2" d="M475.1,453.3C475,453.3,475,453.3,475.1,453.3c-1.1,0-2.1-0.4-2.9-1.2L367.4,345.2c-1.5-1.6-1.5-4.1,0-5.7
	l63-61.9c0.8-0.7,1.7-1.1,2.8-1.1c1.1,0,2.1,0.4,2.8,1.2L541,384.6c1.5,1.6,1.5,4.1,0,5.7l-63,61.9
	C477.1,452.9,476.1,453.3,475.1,453.3z M375.8,342.5l99.3,101.2l57.3-56.3l-99.3-101.2L375.8,342.5z"/>
</svg>
