<?xml version="1.0" encoding="utf-8"?>
<!-- Generator: Adobe Illustrator 24.3.0, SVG Export Plug-In . SVG Version: 6.00 Build 0)  -->
<svg version="1.1" id="레이어_1" xmlns="http://www.w3.org/2000/svg" xmlns:xlink="http://www.w3.org/1999/xlink" x="0px"
	 y="0px" viewBox="0 0 680.4 680.4" style="enable-background:new 0 0 680.4 680.4;" xml:space="preserve">
<style type="text/css">
	.st0{fill:#FFBB61;}
	.st1{fill:#CC6E2E;}
	.st2{fill:#B3450B;}
	.st3{fill:#FF6C1E;}
	.st4{fill:#52B8D9;}
	.st5{fill:#1FFFF7;stroke:#000000;stroke-width:0.8658;stroke-miterlimit:10;}
	.st6{fill:#88FFF6;}
	.st7{fill:#F9DD9D;}
	.st8{fill:#F8F3F3;}
	.st9{fill:#63312D;}
	.st10{fill:#FFD5B0;}
	.st11{fill:#82D9FF;}
	.st12{fill:#F9A287;}
	.st13{fill:#B3450B;stroke:#000000;stroke-width:0.8658;stroke-miterlimit:10;}
	.st14{fill:#FF7E38;stroke:#000000;stroke-width:0.8658;stroke-miterlimit:10;}
	.st15{fill:#FF6C1E;stroke:#000000;stroke-width:0.8658;stroke-miterlimit:10;}
	.st16{fill:#00B3AC;stroke:#000000;stroke-width:0.8658;stroke-miterlimit:10;}
	.st17{fill:#CAF4FF;}
	.st18{fill:#FFEECF;}
	.st19{fill:#EEEEEE;}
	.st20{fill:#EFC36A;}
	.st21{fill:#AF5B48;}
	.st22{fill:#FFC8BB;}
	.st23{fill:#0277BD;}
	.st24{fill:#84DBFF;}
	.st25{fill:#DB785A;}
	.st26{fill:#D1D1D1;}
</style>
<circle class="st0" cx="338" cy="317.3" r="314.8"/>
<path class="st5" d="M431,535.6H249.5V390.5l90.8-52.6l90.8,52.6V535.6z"/>
<path class="st2" d="M431,539.6H249.5c-2.2,0-4-1.8-4-4V390.5c0-1.4,0.8-2.7,2-3.5l90.8-52.6c1.2-0.7,2.8-0.7,4,0L433,387
	c1.2,0.7,2,2,2,3.5v145.1C435,537.8,433.2,539.6,431,539.6z M253.5,531.6H427V392.8l-86.8-50.3l-86.8,50.3V531.6z"/>
<path class="st19" d="M278.6,422.1h125.8v113.5H278.6V422.1z"/>
<path class="st23" d="M404.4,539.6H278.6c-2.2,0-4-1.8-4-4V422.1c0-2.2,1.8-4,4-4h125.8c2.2,0,4,1.8,4,4v113.5
	C408.4,537.8,406.6,539.6,404.4,539.6z M282.6,531.6h117.8V426.1H282.6V531.6z"/>
<path class="st3" d="M278.6,422.1h125.8v22.5H278.6V422.1z"/>
<path class="st2" d="M404.4,539.6H278.6c-2.2,0-4-1.8-4-4V422.1c0-2.2,1.8-4,4-4h125.8c2.2,0,4,1.8,4,4v113.5
	C408.4,537.8,406.6,539.6,404.4,539.6z M282.6,531.6h117.8V426.1H282.6V531.6z"/>
<path class="st2" d="M278.6,440.6h125.8v8H278.6V440.6z"/>
<path class="st7" d="M141.1,211.4h118.1v107H141.1V211.4z"/>
<path class="st2" d="M259.2,322.4H141.1c-2.2,0-4-1.8-4-4v-107c0-2.2,1.8-4,4-4h118.1c2.2,0,4,1.8,4,4v107
	C263.2,320.6,261.4,322.4,259.2,322.4z M145.1,314.4h110.1v-99H145.1V314.4z"/>
<path class="st7" d="M109.1,211.4h118.1v107H109.1V211.4z"/>
<path class="st18" d="M125.1,227.4h102.1v-16H109.1v107h16V227.4z"/>
<path class="st2" d="M227.2,322.4H109.1c-2.2,0-4-1.8-4-4v-107c0-2.2,1.8-4,4-4h118.1c2.2,0,4,1.8,4,4v107
	C231.2,320.6,229.4,322.4,227.2,322.4z M113.1,314.4h110.1v-99H113.1V314.4z"/>
<path class="st8" d="M155,211.4h26.3v35.7H155V211.4z"/>
<path class="st2" d="M181.3,251.1H155c-2.2,0-4-1.8-4-4v-35.7c0-2.2,1.8-4,4-4h26.3c2.2,0,4,1.8,4,4v35.7
	C185.3,249.3,183.5,251.1,181.3,251.1z M159,243.1h18.3v-27.7H159V243.1z"/>
<path class="st7" d="M141.1,566.7h118.1v107H141.1V566.7z"/>
<path class="st2" d="M259.2,677.7H141.1c-2.2,0-4-1.8-4-4v-107c0-2.2,1.8-4,4-4h118.1c2.2,0,4,1.8,4,4v107
	C263.2,675.9,261.4,677.7,259.2,677.7z M145.1,669.7h110.1v-99H145.1V669.7z"/>
<path class="st7" d="M109.1,566.7h118.1v107H109.1V566.7z"/>
<path class="st18" d="M125.1,582.7h102.1v-16H109.1v107h16V582.7z"/>
<path class="st2" d="M227.2,677.7H109.1c-2.2,0-4-1.8-4-4v-107c0-2.2,1.8-4,4-4h118.1c2.2,0,4,1.8,4,4v107
	C231.2,675.9,229.4,677.7,227.2,677.7z M113.1,669.7h110.1v-99H113.1V669.7z"/>
<path class="st8" d="M155,566.7h26.3v35.7H155V566.7z"/>
<path class="st2" d="M181.3,606.4H155c-2.2,0-4-1.8-4-4v-35.7c0-2.2,1.8-4,4-4h26.3c2.2,0,4,1.8,4,4v35.7
	C185.3,604.6,183.5,606.4,181.3,606.4z M159,598.4h18.3v-27.7H159V598.4z"/>
<path class="st7" d="M453.2,211.4h118.1v107H453.2V211.4z"/>
<path class="st2" d="M571.3,322.4H453.2c-2.2,0-4-1.8-4-4v-107c0-2.2,1.8-4,4-4h118.1c2.2,0,4,1.8,4,4v107
	C575.3,320.6,573.6,322.4,571.3,322.4z M457.2,314.4h110.1v-99H457.2V314.4z"/>
<path class="st7" d="M421.2,211.4h118.1v107H421.2V211.4z"/>
<path class="st18" d="M437.2,227.4h102.1v-16H421.2v107h16V227.4z"/>
<path class="st2" d="M539.3,322.4H421.2c-2.2,0-4-1.8-4-4v-107c0-2.2,1.8-4,4-4h118.1c2.2,0,4,1.8,4,4v107
	C543.3,320.6,541.6,322.4,539.3,322.4z M425.2,314.4h110.1v-99H425.2V314.4z"/>
<path class="st8" d="M467.1,211.4h26.3v35.7h-26.3V211.4z"/>
<path class="st2" d="M493.4,251.1h-26.3c-2.2,0-4-1.8-4-4v-35.7c0-2.2,1.8-4,4-4h26.3c2.2,0,4,1.8,4,4v35.7
	C497.4,249.3,495.7,251.1,493.4,251.1z M471.1,243.1h18.3v-27.7h-18.3V243.1z"/>
<path class="st7" d="M453.2,566.7h118.1v107H453.2V566.7z"/>
<path class="st2" d="M571.3,677.7H453.2c-2.2,0-4-1.8-4-4v-107c0-2.2,1.8-4,4-4h118.1c2.2,0,4,1.8,4,4v107
	C575.3,675.9,573.6,677.7,571.3,677.7z M457.2,669.7h110.1v-99H457.2V669.7z"/>
<path class="st7" d="M421.2,566.7h118.1v107H421.2V566.7z"/>
<path class="st18" d="M437.2,582.7h102.1v-16H421.2v107h16V582.7z"/>
<path class="st2" d="M539.3,677.7H421.2c-2.2,0-4-1.8-4-4v-107c0-2.2,1.8-4,4-4h118.1c2.2,0,4,1.8,4,4v107
	C543.3,675.9,541.6,677.7,539.3,677.7z M425.2,669.7h110.1v-99H425.2V669.7z"/>
<path class="st8" d="M467.1,566.7h26.3v35.7h-26.3V566.7z"/>
<g>
	<path class="st2" d="M493.4,606.4h-26.3c-2.2,0-4-1.8-4-4v-35.7c0-2.2,1.8-4,4-4h26.3c2.2,0,4,1.8,4,4v35.7
		C497.4,604.6,495.7,606.4,493.4,606.4z M471.1,598.4h18.3v-27.7h-18.3V598.4z"/>
	<path class="st2" d="M164.1,318.4h8v248.3h-8V318.4z"/>
	<path class="st2" d="M508.3,318.4h8v248.3h-8V318.4z"/>
	<path class="st2" d="M168.1,438.6h81.3v8h-81.3V438.6z"/>
	<path class="st2" d="M431,438.6h81.4v8H431V438.6z"/>
</g>
</svg>
