<?xml version="1.0" encoding="utf-8"?>
<!-- Generator: Adobe Illustrator 27.1.1, SVG Export Plug-In . SVG Version: 6.00 Build 0)  -->
<svg version="1.1" id="레이어_1" xmlns="http://www.w3.org/2000/svg" xmlns:xlink="http://www.w3.org/1999/xlink" x="0px"
	 y="0px" viewBox="0 0 680.4 680.4" style="enable-background:new 0 0 680.4 680.4;" xml:space="preserve">
<style type="text/css">
	.st0{fill:#FFBB61;}
	.st1{fill:#D1D1D1;}
	.st2{fill:#B3450B;}
	.st3{fill:#F8F3F3;}
	.st4{fill:#1FFFF7;stroke:#000000;stroke-width:0.8658;stroke-miterlimit:10;}
	.st5{fill:#CAF4FF;}
	.st6{fill:#EFC36A;}
	.st7{fill:#F9DD9D;}
	.st8{fill:#FFEECF;}
	.st9{fill:#FF6C1E;stroke:#000000;stroke-width:0.8658;stroke-miterlimit:10;}
	.st10{fill:#52B8D9;}
	.st11{fill:#82D9FF;}
</style>
<circle class="st0" cx="338" cy="317.3" r="314.8"/>
<path class="st1" d="M219.8,216.6h268.4v422.9H219.8V216.6z"/>
<path class="st2" d="M488.2,643.5H219.8c-2.2,0-4-1.8-4-4V216.6c0-2.2,1.8-4,4-4h268.4c2.2,0,4,1.8,4,4v422.9
	C492.2,641.7,490.4,643.5,488.2,643.5z M223.8,635.5h260.4V220.6H223.8V635.5z"/>
<path class="st3" d="M187.8,216.6h268.4v422.9H187.8V216.6z"/>
<path class="st2" d="M456.2,643.5H187.8c-2.2,0-4-1.8-4-4V216.6c0-2.2,1.8-4,4-4h268.4c2.2,0,4,1.8,4,4v422.9
	C460.2,641.7,458.4,643.5,456.2,643.5z M191.8,635.5h260.4V220.6H191.8V635.5z"/>
<path class="st4" d="M211.8,615.5h220.4v-375H211.8V615.5z"/>
<path class="st5" d="M227.8,256.5h204.5v-16H211.8v375h16V256.5z"/>
<path class="st2" d="M432.2,619.5H211.8c-2.2,0-4-1.8-4-4v-375c0-2.2,1.8-4,4-4h220.4c2.2,0,4,1.8,4,4v375
	C436.2,617.7,434.4,619.5,432.2,619.5z M215.8,611.5h212.5v-367H215.8V611.5z"/>
<path class="st6" d="M272.5,515.7h135.9v123H272.5V515.7z"/>
<path class="st2" d="M408.3,642.7H272.5c-2.2,0-4-1.8-4-4V515.7c0-2.2,1.8-4,4-4h135.9c2.2,0,4,1.8,4,4v123
	C412.3,640.9,410.6,642.7,408.3,642.7z M276.5,634.7h127.9V519.6H276.5V634.7z"/>
<path class="st7" d="M235.7,515.7h135.8v123H235.7V515.7z"/>
<path class="st8" d="M251.7,531.6h119.9v-16H235.7v123h16V531.6z"/>
<path class="st2" d="M371.5,642.7H235.7c-2.2,0-4-1.8-4-4V515.7c0-2.2,1.8-4,4-4h135.9c2.2,0,4,1.8,4,4v123
	C375.5,640.9,373.8,642.7,371.5,642.7z M239.7,634.7h127.9V519.6H239.7V634.7z"/>
<path class="st3" d="M288.5,515.7h30.3v41h-30.3V515.7z"/>
<path class="st2" d="M318.8,560.7h-30.3c-2.2,0-4-1.8-4-4v-41c0-2.2,1.8-4,4-4h30.3c2.2,0,4,1.8,4,4v41
	C322.8,558.9,321,560.7,318.8,560.7z M292.5,552.7h22.3v-33h-22.3V552.7z"/>
<path class="st9" d="M246.8,275.3h40.9v38.9h-40.9V275.3z"/>
<path class="st9" d="M304.7,275.3h40.9v38.9h-40.9V275.3z"/>
<path class="st9" d="M362.6,275.3h40.9v38.9h-40.9V275.3z"/>
<path class="st9" d="M246.8,330.9h40.9v38.9h-40.9V330.9z"/>
<path class="st9" d="M304.7,330.9h40.9v38.9h-40.9V330.9z"/>
<path class="st9" d="M362.6,330.9h40.9v38.9h-40.9V330.9z"/>
<g>
	<path class="st2" d="M287.7,318.2h-40.9c-2.2,0-4-1.8-4-4v-38.9c0-2.2,1.8-4,4-4h40.9c2.2,0,4,1.8,4,4v38.9
		C291.7,316.5,289.9,318.2,287.7,318.2z M250.8,310.3h33v-31h-33V310.3z"/>
	<path class="st2" d="M345.7,318.2h-40.9c-2.2,0-4-1.8-4-4v-38.9c0-2.2,1.8-4,4-4h40.9c2.2,0,4,1.8,4,4v38.9
		C349.6,316.5,347.9,318.2,345.7,318.2z M308.7,310.3h33v-31h-33V310.3z"/>
	<path class="st2" d="M403.6,318.2h-40.9c-2.2,0-4-1.8-4-4v-38.9c0-2.2,1.8-4,4-4h40.9c2.2,0,4,1.8,4,4v38.9
		C407.6,316.5,405.8,318.2,403.6,318.2z M366.6,310.3h33v-31h-33V310.3z"/>
	<path class="st2" d="M287.7,373.8h-40.9c-2.2,0-4-1.8-4-4v-38.9c0-2.2,1.8-4,4-4h40.9c2.2,0,4,1.8,4,4v38.9
		C291.7,372,289.9,373.8,287.7,373.8z M250.8,365.8h33v-31h-33V365.8z"/>
	<path class="st2" d="M345.7,373.8h-40.9c-2.2,0-4-1.8-4-4v-38.9c0-2.2,1.8-4,4-4h40.9c2.2,0,4,1.8,4,4v38.9
		C349.6,372,347.9,373.8,345.7,373.8z M308.7,365.8h33v-31h-33V365.8z"/>
	<path class="st2" d="M403.6,373.8h-40.9c-2.2,0-4-1.8-4-4v-38.9c0-2.2,1.8-4,4-4h40.9c2.2,0,4,1.8,4,4v38.9
		C407.6,372,405.8,373.8,403.6,373.8z M366.6,365.8h33v-31h-33V365.8z"/>
</g>
<path class="st10" d="M188,639.5h331.9v37.1H188V639.5z"/>
<path class="st2" d="M519.9,680.6H188c-2.2,0-4-1.8-4-4v-37.1c0-2.2,1.8-4,4-4H520c2.2,0,4,1.8,4,4v37.1
	C523.9,678.8,522.2,680.6,519.9,680.6z M192,672.6h324v-29.1H192V672.6z"/>
<path class="st11" d="M156,639.5H488v37.1H156V639.5z"/>
<path class="st4" d="M172,655.5h316v-16H156v37.1h16V655.5z"/>
<path class="st2" d="M488,680.6H156c-2.2,0-4-1.8-4-4v-37.1c0-2.2,1.8-4,4-4H488c2.2,0,4,1.8,4,4v37.1
	C492,678.8,490.2,680.6,488,680.6z M160,672.6h324v-29.1H160V672.6z"/>
<path class="st3" d="M403.6,437.5c0,7.8-6.4,14.2-14.2,14.2c-7.8,0-14.2-6.4-14.2-14.2c0-7.8,6.4-14.2,14.2-14.2
	C397.2,423.3,403.6,429.7,403.6,437.5z"/>
<path class="st2" d="M389.4,455.7c-10,0-18.2-8.2-18.2-18.2c0-10,8.2-18.2,18.2-18.2c10,0,18.2,8.2,18.2,18.2
	C407.6,447.5,399.4,455.7,389.4,455.7z M389.4,427.3c-5.6,0-10.2,4.6-10.2,10.2c0,5.6,4.6,10.2,10.2,10.2c5.6,0,10.2-4.6,10.2-10.2
	C399.6,431.9,395,427.3,389.4,427.3z"/>
</svg>
