<?xml version="1.0" encoding="utf-8"?>
<!-- Generator: Adobe Illustrator 27.1.1, SVG Export Plug-In . SVG Version: 6.00 Build 0)  -->
<svg version="1.1" id="레이어_1" xmlns="http://www.w3.org/2000/svg" xmlns:xlink="http://www.w3.org/1999/xlink" x="0px"
	 y="0px" viewBox="0 0 680.4 680.4" style="enable-background:new 0 0 680.4 680.4;" xml:space="preserve">
<style type="text/css">
	.st0{fill:#FFBB61;}
	.st1{fill:#F9DD9D;}
	.st2{fill:#B3450B;}
	.st3{fill:#FFEECF;}
	.st4{fill:#FF6C1E;stroke:#000000;stroke-width:0.8658;stroke-miterlimit:10;}
	.st5{fill:#1FFFF7;stroke:#000000;stroke-width:0.8658;stroke-miterlimit:10;}
	.st6{fill:#F8F3F3;}
</style>
<circle class="st0" cx="338" cy="317.3" r="314.8"/>
<g>
	<path class="st1" d="M171.4,271.6h336.9v347.5H171.4V271.6z"/>
	<path class="st2" d="M508.3,623.2H171.4c-2.2,0-4-1.8-4-4V271.6c0-2.2,1.8-4,4-4h336.9c2.2,0,4,1.8,4,4v347.5
		C512.3,621.4,510.5,623.2,508.3,623.2z M175.4,615.2h328.9V275.6H175.4V615.2z"/>
	<path class="st1" d="M103.4,271.6h336.9v347.5H103.4V271.6z"/>
	<path class="st3" d="M119.4,287.6h320.9v-16H103.4v347.5h16V287.6z"/>
	<path class="st2" d="M440.4,623.2H103.4c-2.2,0-4-1.8-4-4V271.6c0-2.2,1.8-4,4-4h336.9c2.2,0,4,1.8,4,4v347.5
		C444.4,621.4,442.6,623.2,440.4,623.2z M107.4,615.2h328.9V275.6H107.4V615.2z"/>
	<path class="st4" d="M315.7,383l-14.6,11.3L286.4,383l-14.6,11.3L257.2,383l-14.6,11.3L228.1,383V271.6h87.7V383z"/>
	<path class="st2" d="M301.1,398.3c-0.9,0-1.7-0.3-2.4-0.8l-12.2-9.4l-12.2,9.4c-1.4,1.1-3.5,1.1-4.9,0l-12.1-9.4l-12.2,9.4
		c-1.4,1.1-3.5,1.1-4.9,0l-14.6-11.3c-1-0.8-1.6-1.9-1.6-3.2V271.6c0-2.2,1.8-4,4-4h87.7c2.2,0,4,1.8,4,4V383c0,1.2-0.6,2.4-1.5,3.2
		l-14.6,11.3C302.8,398,301.9,398.3,301.1,398.3z M286.4,379c0.9,0,1.7,0.3,2.4,0.8l12.2,9.4l10.6-8.2V275.6h-79.7V381l10.6,8.2
		l12.2-9.4c1.4-1.1,3.4-1.1,4.9,0l12.1,9.4l12.2-9.4C284.7,379.3,285.6,379,286.4,379z"/>
	<path class="st5" d="M148.7,523.7h71v45.5h-71V523.7z"/>
	<path class="st2" d="M219.7,573.1h-71c-2.2,0-4-1.8-4-4v-45.5c0-2.2,1.8-4,4-4h71c2.2,0,4,1.8,4,4v45.5
		C223.7,571.4,221.9,573.1,219.7,573.1z M152.7,565.2h63v-37.5h-63V565.2z"/>
	<path class="st5" d="M549.4,676.4h-178c-8.8,0-16-7.2-16-16v-178c0-8.8,7.2-16,16-16h178c8.8,0,16,7.2,16,16v178
		C565.4,669.2,558.3,676.4,549.4,676.4z"/>
	<path class="st2" d="M549.4,680.4h-178c-11,0-20-9-20-20v-178c0-11,9-20,20-20h178c11,0,20,9,20,20v178
		C569.4,671.4,560.5,680.4,549.4,680.4z M371.4,470.4c-6.6,0-12,5.4-12,12v178c0,6.6,5.4,12,12,12h178c6.6,0,12-5.4,12-12v-178
		c0-6.6-5.4-12-12-12H371.4z"/>
	<path class="st6" d="M469.1,626.2v-37h-17.4v37h-16c-4.8,0-8.7,3.9-8.7,8.7c0,4.8,3.9,8.7,8.7,8.7h49.3c4.8,0,8.7-3.9,8.7-8.7
		c0-4.8-3.9-8.7-8.7-8.7H469.1z"/>
	<path class="st2" d="M485.1,647.6h-49.3c-7,0-12.7-5.7-12.7-12.7c0-7,5.7-12.7,12.7-12.7h12v-33c0-2.2,1.8-4,4-4h17.4
		c2.2,0,4,1.8,4,4v33h11.9c7,0,12.7,5.7,12.7,12.7C497.8,641.9,492.1,647.6,485.1,647.6z M435.8,630.2c-2.6,0-4.7,2.1-4.7,4.7
		c0,2.6,2.1,4.7,4.7,4.7h49.3c2.6,0,4.7-2.1,4.7-4.7c0-2.6-2.1-4.7-4.7-4.7h-15.9c-2.2,0-4-1.8-4-4v-33h-9.4v33c0,2.2-1.8,4-4,4
		H435.8z"/>
	<path class="st6" d="M460.4,591.5c-23.2,0-42.1-18.8-42.1-42.1v-46.2h84.2v46.2C502.5,572.7,483.7,591.5,460.4,591.5z"/>
	<g>
		<path class="st2" d="M460.4,595.5c-25.4,0-46.1-20.7-46.1-46.1v-46.2c0-2.2,1.8-4,4-4h84.2c2.2,0,4,1.8,4,4v46.2
			C506.5,574.8,485.8,595.5,460.4,595.5z M422.3,507.2v42.2c0,21,17.1,38.1,38.1,38.1c21,0,38.1-17.1,38.1-38.1v-42.2H422.3z"/>
		<path class="st2" d="M476.2,554.9l-6.6-4.5l5.7-8.3l-7.3-6.9c-1.5-1.4-1.7-3.7-0.5-5.3l7.8-10.5l-9.7-13.9l6.5-4.6l11.4,16.2
			c1,1.4,1,3.3-0.1,4.7l-7.4,9.9l7.2,6.8c1.4,1.3,1.7,3.5,0.6,5.2L476.2,554.9z"/>
	</g>
</g>
</svg>
