<?xml version="1.0" encoding="utf-8"?>
<!-- Generator: Adobe Illustrator 27.1.1, SVG Export Plug-In . SVG Version: 6.00 Build 0)  -->
<svg version="1.1" id="레이어_1" xmlns="http://www.w3.org/2000/svg" xmlns:xlink="http://www.w3.org/1999/xlink" x="0px"
	 y="0px" viewBox="0 0 680.4 680.4" style="enable-background:new 0 0 680.4 680.4;" xml:space="preserve">
<style type="text/css">
	.st0{fill:#FFBB61;}
	.st1{fill:#F9A287;}
	.st2{fill:#B3450B;}
	.st3{fill:#D1D1D1;}
	.st4{fill:#F9DD9D;}
	.st5{fill:#FFC8BB;}
	.st6{fill:#FFEECF;}
	.st7{fill:#F8F3F3;}
	.st8{fill:#52B8D9;}
	.st9{fill:#1FFFF7;stroke:#000000;stroke-width:0.8658;stroke-miterlimit:10;}
	.st10{fill:#CAF4FF;}
	.st11{fill:#FF6C1E;stroke:#000000;stroke-width:0.8658;stroke-miterlimit:10;}
</style>
<circle class="st0" cx="338" cy="317.3" r="314.8"/>
<path class="st1" d="M235.3,213.9v61.6h-61.6V297h330.9v-83.1H235.3z"/>
<path class="st2" d="M504.6,301H173.7c-2.2,0-4-1.8-4-4v-21.5c0-2.2,1.8-4,4-4h57.6v-57.6c0-2.2,1.8-4,4-4h269.3c2.2,0,4,1.8,4,4
	V297C508.6,299.2,506.8,301,504.6,301z M177.7,293h322.9v-75.1H239.3v57.6c0,2.2-1.8,4-4,4h-57.6V293z"/>
<path class="st3" d="M173.7,297h330.9v378.9H173.7V297z"/>
<path class="st2" d="M504.6,679.9H173.7c-2.2,0-4-1.8-4-4V297c0-2.2,1.8-4,4-4h330.9c2.2,0,4,1.8,4,4v378.9
	C508.6,678.1,506.8,679.9,504.6,679.9z M177.7,671.9h322.9V301H177.7V671.9z"/>
<path class="st4" d="M203.3,213.9v61.6h-61.6V297h330.9v-83.1H203.3z"/>
<path class="st5" d="M141.7,275.5h15.6V297h-15.6V275.5z"/>
<path class="st6" d="M203.3,213.9h269.3v16H203.3V213.9z"/>
<path class="st2" d="M472.6,301H141.7c-2.2,0-4-1.8-4-4v-21.5c0-2.2,1.8-4,4-4h57.6v-57.6c0-2.2,1.8-4,4-4h269.3c2.2,0,4,1.8,4,4
	V297C476.6,299.2,474.9,301,472.6,301z M145.7,293h322.9v-75.1H207.3v57.6c0,2.2-1.8,4-4,4h-57.6V293z"/>
<path class="st6" d="M203.3,213.9l-61.6,61.6h61.6V213.9z"/>
<path class="st2" d="M203.3,279.5h-61.6c-1.6,0-3.1-1-3.7-2.5c-0.6-1.5-0.3-3.2,0.9-4.4l61.6-61.6c1.2-1.2,2.9-1.5,4.4-0.9
	c1.5,0.6,2.5,2.1,2.5,3.7v61.6C207.3,277.7,205.5,279.5,203.3,279.5z M151.4,271.5h47.9v-48L151.4,271.5z"/>
<path class="st7" d="M141.7,297h330.9v378.9H141.7V297z"/>
<path class="st2" d="M472.6,679.9H141.7c-2.2,0-4-1.8-4-4V297c0-2.2,1.8-4,4-4h330.9c2.2,0,4,1.8,4,4v378.9
	C476.6,678.1,474.9,679.9,472.6,679.9z M145.7,671.9h322.9V301H145.7V671.9z"/>
<path class="st8" d="M408.5,511h159.9v164.9H408.5V511z"/>
<path class="st2" d="M568.4,679.9H408.5c-2.2,0-4-1.8-4-4V511c0-2.2,1.8-4,4-4h159.9c2.2,0,4,1.8,4,4v164.9
	C572.4,678.1,570.7,679.9,568.4,679.9z M412.5,671.9h151.9V515H412.5V671.9z"/>
<path class="st9" d="M376.3,511h159.9v164.9H376.3V511z"/>
<path class="st10" d="M392.3,526.9h143.9v-16H376.3v164.9h16V526.9z"/>
<path class="st2" d="M536.2,679.9H376.3c-2.2,0-4-1.8-4-4V511c0-2.2,1.8-4,4-4h159.9c2.2,0,4,1.8,4,4v164.9
	C540.2,678.1,538.4,679.9,536.2,679.9z M380.3,671.9h151.9V515H380.3V671.9z"/>
<path class="st11" d="M477,563.8l-6.9,5.4l-6.9-5.4l-6.9,5.4l-6.9-5.4l-6.9,5.4l-6.9-5.4V511H477V563.8z"/>
<path class="st2" d="M442.3,573.2c-0.9,0-1.7-0.3-2.5-0.8L433,567c-1-0.8-1.5-1.9-1.5-3.2V511c0-2.2,1.8-4,4-4H477c2.2,0,4,1.8,4,4
	v52.9c0,1.2-0.6,2.4-1.5,3.2l-6.9,5.4c-1.4,1.1-3.5,1.1-4.9,0l-4.5-3.5l-4.5,3.5c-1.5,1.1-3.5,1.1-4.9,0l-4.5-3.5l-4.5,3.5
	C444.1,572.9,443.2,573.2,442.3,573.2z M463.1,559.8c0.9,0,1.7,0.3,2.4,0.8l4.5,3.5l3-2.3V515h-33.6v46.9l2.9,2.3l4.5-3.5
	c1.4-1.1,3.4-1.1,4.9,0l4.5,3.5l4.5-3.5C461.4,560.1,462.3,559.8,463.1,559.8z"/>
<path class="st4" d="M195.3,540.9h133v89.8h-133V540.9z"/>
<g>
	<path class="st2" d="M328.3,634.7h-133c-2.2,0-4-1.8-4-4v-89.8c0-2.2,1.8-4,4-4h133c2.2,0,4,1.8,4,4v89.8
		C332.3,632.9,330.5,634.7,328.3,634.7z M199.3,626.7h125v-81.8h-125V626.7z"/>
	<path class="st2" d="M212.9,560.2h8v49.9h-8V560.2z"/>
	<path class="st2" d="M230.3,560.2h8v49.9h-8V560.2z"/>
	<path class="st2" d="M247.8,560.2h8V597h-8V560.2z"/>
	<path class="st2" d="M265.3,560.2h8v49.9h-8V560.2z"/>
	<path class="st2" d="M282.7,560.2h8V597h-8V560.2z"/>
	<path class="st2" d="M300.2,560.2h8v49.9h-8V560.2z"/>
	<path class="st2" d="M187.1,347h240.2v8H187.1V347z"/>
	<path class="st2" d="M187.1,384.9h240.2v8H187.1V384.9z"/>
	<path class="st2" d="M187.1,422.9h240.2v8H187.1V422.9z"/>
	<path class="st2" d="M187.1,460.9h138.5v8H187.1V460.9z"/>
</g>
</svg>
