<?xml version="1.0" encoding="utf-8"?>
<!-- Generator: Adobe Illustrator 24.3.0, SVG Export Plug-In . SVG Version: 6.00 Build 0)  -->
<svg version="1.1" id="레이어_1" xmlns="http://www.w3.org/2000/svg" xmlns:xlink="http://www.w3.org/1999/xlink" x="0px"
	 y="0px" viewBox="0 0 680.4 680.4" style="enable-background:new 0 0 680.4 680.4;" xml:space="preserve">
<style type="text/css">
	.st0{fill:#FFBB61;}
	.st1{fill:#CC6E2E;}
	.st2{fill:#B3450B;}
	.st3{fill:#FF6C1E;}
	.st4{fill:#52B8D9;}
	.st5{fill:#1FFFF7;stroke:#000000;stroke-width:0.8658;stroke-miterlimit:10;}
	.st6{fill:#88FFF6;}
	.st7{fill:#F9DD9D;}
	.st8{fill:#F8F3F3;}
	.st9{fill:#63312D;}
	.st10{fill:#FFD5B0;}
	.st11{fill:#82D9FF;}
	.st12{fill:#F9A287;}
	.st13{fill:#B3450B;stroke:#000000;stroke-width:0.8658;stroke-miterlimit:10;}
	.st14{fill:#FF7E38;stroke:#000000;stroke-width:0.8658;stroke-miterlimit:10;}
	.st15{fill:#FF6C1E;stroke:#000000;stroke-width:0.8658;stroke-miterlimit:10;}
	.st16{fill:#00B3AC;stroke:#000000;stroke-width:0.8658;stroke-miterlimit:10;}
	.st17{fill:#CAF4FF;}
	.st18{fill:#FFEECF;}
	.st19{fill:#EEEEEE;}
	.st20{fill:#EFC36A;}
	.st21{fill:#AF5B48;}
	.st22{fill:#FFC8BB;}
	.st23{fill:#0277BD;}
	.st24{fill:#84DBFF;}
	.st25{fill:#DB785A;}
	.st26{fill:#D1D1D1;}
</style>
<circle class="st0" cx="338" cy="317.3" r="314.8"/>
<path class="st4" d="M543.3,614.2H188.5V317.9L310,245v-32.1h63.8c2.8,0,5.6,0.7,8,2.2l169.5,98.2c4.9,2.9,8,8.1,8,13.8v271.2
	C559.3,607.1,552.1,614.2,543.3,614.2z"/>
<path class="st2" d="M543.3,618.2H188.5c-2.2,0-4-1.8-4-4V317.9c0-1.4,0.7-2.7,1.9-3.4L306,242.7v-29.8c0-2.2,1.8-4,4-4h63.8
	c3.5,0,7,0.9,10,2.7l169.5,98.2c6.1,3.6,10,10.2,10,17.3v271.2C563.3,609.3,554.3,618.2,543.3,618.2z M192.5,610.3h350.8
	c6.6,0,12-5.4,12-12V327.1c0-4.3-2.3-8.2-6-10.4l-169.5-98.2c-1.8-1.1-3.9-1.6-6-1.6H314V245c0,1.4-0.7,2.7-1.9,3.4l-119.6,71.7
	L192.5,610.3L192.5,610.3z"/>
<path class="st5" d="M479.4,614.2H140.6c-8.8,0-16-7.1-16-16V327.1c0-5.7,3-11,8-13.8L302,215.1c5-2.9,11.1-2.9,16,0l169.4,98.2
	c4.9,2.9,8,8.1,8,13.8v271.2C495.4,607.1,488.2,614.2,479.4,614.2z"/>
<path class="st17" d="M140.6,607.4V336.3c0-5.7,3-11,8-13.8L318,224.2c4.7-2.7,10.5-2.8,15.4-0.3l-15.3-8.9c-5-2.9-11.1-2.9-16,0
	l-169.4,98.2c-4.9,2.9-8,8.1-8,13.8v271.2c0,8.8,7.1,16,16,16h1.6C141.2,612.2,140.6,609.9,140.6,607.4z"/>
<path class="st2" d="M479.4,618.2H140.6c-11,0-20-9-20-20V327.1c0-7.1,3.8-13.7,10-17.3L300,211.6c6.2-3.6,13.9-3.6,20,0l169.4,98.2
	c6.1,3.6,10,10.2,10,17.3v271.2C499.4,609.3,490.4,618.2,479.4,618.2z M310,216.9c-2.1,0-4.2,0.5-6,1.6l-169.4,98.2
	c-3.7,2.1-6,6.1-6,10.4v271.2c0,6.6,5.4,12,12,12h338.9c6.6,0,12-5.4,12-12V327.1c0-4.3-2.3-8.2-6-10.4L316,218.5
	C314.1,217.5,312.1,216.9,310,216.9z"/>
<path class="st19" d="M184.2,382.4h256.9v231.8H184.2V382.4z"/>
<path class="st2" d="M441.2,618.2H184.2c-2.2,0-4-1.8-4-4V382.4c0-2.2,1.8-4,4-4h256.9c2.2,0,4,1.8,4,4v231.8
	C445.1,616.4,443.4,618.2,441.2,618.2z M188.2,610.3h249V386.4h-249V610.3z"/>
<path class="st2" d="M492.4,313.9h63.9v8h-63.9V313.9z"/>
<path class="st3" d="M184.2,382.4h256.9v34.2H184.2V382.4z"/>
<path class="st3" d="M184.2,416.6h256.9v34.2H184.2V416.6z"/>
<path class="st3" d="M184.2,450.7h256.9v34.2H184.2V450.7z"/>
<g>
	<path class="st2" d="M441.2,420.6H184.2c-2.2,0-4-1.8-4-4v-34.2c0-2.2,1.8-4,4-4h256.9c2.2,0,4,1.8,4,4v34.2
		C445.1,418.8,443.4,420.6,441.2,420.6z M188.2,412.6h249v-26.2h-249V412.6z"/>
	<path class="st2" d="M441.2,454.7H184.2c-2.2,0-4-1.8-4-4v-34.2c0-2.2,1.8-4,4-4h256.9c2.2,0,4,1.8,4,4v34.2
		C445.1,452.9,443.4,454.7,441.2,454.7z M188.2,446.7h249v-26.2h-249V446.7z"/>
	<path class="st2" d="M441.2,488.9H184.2c-2.2,0-4-1.8-4-4v-34.2c0-2.2,1.8-4,4-4h256.9c2.2,0,4,1.8,4,4v34.2
		C445.1,487.1,443.4,488.9,441.2,488.9z M188.2,480.9h249v-26.2h-249V480.9z"/>
</g>
<path class="st7" d="M320.9,573.1h109.1V672H320.9V573.1z"/>
<path class="st9" d="M430.1,675.9H320.9c-2.2,0-4-1.8-4-4v-98.8c0-2.2,1.8-4,4-4h109.1c2.2,0,4,1.8,4,4v98.8
	C434.1,674.2,432.3,675.9,430.1,675.9z M324.9,668h101.1v-90.9H324.9V668z"/>
<path class="st7" d="M291.4,573.1h109.1V672H291.4V573.1z"/>
<path class="st18" d="M307.4,589.1h93.1v-16H291.4V672h16V589.1z"/>
<path class="st2" d="M400.5,675.9H291.4c-2.2,0-4-1.8-4-4v-98.8c0-2.2,1.8-4,4-4h109.1c2.2,0,4,1.8,4,4v98.8
	C404.5,674.2,402.7,675.9,400.5,675.9z M295.4,668h101.1v-90.9H295.4V668z"/>
<path class="st8" d="M333.8,573.1h24.3v32.9h-24.3V573.1z"/>
<path class="st2" d="M358.1,610h-24.3c-2.2,0-4-1.8-4-4v-32.9c0-2.2,1.8-4,4-4h24.3c2.2,0,4,1.8,4,4v32.9
	C362.1,608.3,360.3,610,358.1,610z M337.8,602.1h16.3v-25h-16.3V602.1z"/>
<path class="st7" d="M430.1,573.1h109.1V672H430.1V573.1z"/>
<path class="st2" d="M539.2,675.9H430.1c-2.2,0-4-1.8-4-4v-98.8c0-2.2,1.8-4,4-4h109.1c2.2,0,4,1.8,4,4v98.8
	C543.2,674.2,541.4,675.9,539.2,675.9z M434.1,668h101.1v-90.9H434.1V668z"/>
<path class="st7" d="M400.5,573.1h109.1V672H400.5V573.1z"/>
<path class="st18" d="M415.3,587.9h94.3v-14.8H400.5V672h14.8V587.9z"/>
<path class="st2" d="M509.6,675.9H400.5c-2.2,0-4-1.8-4-4v-98.8c0-2.2,1.8-4,4-4h109.1c2.2,0,4,1.8,4,4v98.8
	C513.6,674.2,511.8,675.9,509.6,675.9z M404.5,668h101.1v-90.9H404.5V668z"/>
<path class="st8" d="M442.9,573.1h24.3v32.9h-24.3V573.1z"/>
<path class="st2" d="M467.2,610h-24.3c-2.2,0-4-1.8-4-4v-32.9c0-2.2,1.8-4,4-4h24.3c2.2,0,4,1.8,4,4v32.9
	C471.2,608.3,469.4,610,467.2,610z M446.9,602.1h16.3v-25h-16.3V602.1z"/>
<path class="st7" d="M403.1,474.3h109.1v98.8H403.1V474.3z"/>
<path class="st2" d="M512.3,577.1H403.1c-2.2,0-4-1.8-4-4v-98.8c0-2.2,1.8-4,4-4h109.1c2.2,0,4,1.8,4,4v98.8
	C516.2,575.3,514.5,577.1,512.3,577.1z M407.1,569.1h101.1v-90.9H407.1V569.1z"/>
<path class="st7" d="M373.6,474.3h109.1v98.8H373.6V474.3z"/>
<path class="st18" d="M388.3,489h94.4v-14.8H373.6v98.8h14.8V489z"/>
<path class="st2" d="M482.7,577.1H373.6c-2.2,0-4-1.8-4-4v-98.8c0-2.2,1.8-4,4-4h109.1c2.2,0,4,1.8,4,4v98.8
	C486.7,575.3,484.9,577.1,482.7,577.1z M377.6,569.1h101.1v-90.9H377.6V569.1z"/>
<path class="st8" d="M416,474.3h24.3v32.9H416V474.3z"/>
<path class="st2" d="M440.3,511.2H416c-2.2,0-4-1.8-4-4v-32.9c0-2.2,1.8-4,4-4h24.3c2.2,0,4,1.8,4,4v32.9
	C444.3,509.4,442.5,511.2,440.3,511.2z M420,503.2h16.3v-25H420V503.2z"/>
</svg>
