<?xml version="1.0" encoding="utf-8"?>
<!-- Generator: Adobe Illustrator 24.3.0, SVG Export Plug-In . SVG Version: 6.00 Build 0)  -->
<svg version="1.1" id="레이어_1" xmlns="http://www.w3.org/2000/svg" xmlns:xlink="http://www.w3.org/1999/xlink" x="0px"
	 y="0px" viewBox="0 0 680.4 680.4" style="enable-background:new 0 0 680.4 680.4;" xml:space="preserve">
<style type="text/css">
	.st0{fill:#FFBB61;}
	.st1{fill:#CC6E2E;}
	.st2{fill:#B3450B;}
	.st3{fill:#FF6C1E;}
	.st4{fill:#52B8D9;}
	.st5{fill:#1FFFF7;stroke:#000000;stroke-width:0.8658;stroke-miterlimit:10;}
	.st6{fill:#88FFF6;}
	.st7{fill:#F9DD9D;}
	.st8{fill:#F8F3F3;}
	.st9{fill:#63312D;}
	.st10{fill:#FFD5B0;}
	.st11{fill:#82D9FF;}
	.st12{fill:#F9A287;}
	.st13{fill:#B3450B;stroke:#000000;stroke-width:0.8658;stroke-miterlimit:10;}
	.st14{fill:#FF7E38;stroke:#000000;stroke-width:0.8658;stroke-miterlimit:10;}
	.st15{fill:#FF6C1E;stroke:#000000;stroke-width:0.8658;stroke-miterlimit:10;}
	.st16{fill:#00B3AC;stroke:#000000;stroke-width:0.8658;stroke-miterlimit:10;}
	.st17{fill:#CAF4FF;}
	.st18{fill:#FFEECF;}
	.st19{fill:#EEEEEE;}
	.st20{fill:#EFC36A;}
	.st21{fill:#AF5B48;}
	.st22{fill:#FFC8BB;}
	.st23{fill:#0277BD;}
	.st24{fill:#84DBFF;}
	.st25{fill:#DB785A;}
	.st26{fill:#D1D1D1;}
</style>
<circle class="st0" cx="338" cy="317.3" r="314.8"/>
<path class="st1" d="M475.5,463.6V326.4c0-60.4-49-109.4-109.4-109.4H315v248.5L475.5,463.6z"/>
<path class="st2" d="M315,469.6c-1,0-2.1-0.4-2.8-1.2c-0.8-0.8-1.2-1.8-1.2-2.8V217.1c0-2.2,1.8-4,4-4h51.1
	c62.5,0,113.4,50.9,113.4,113.4v137.2c0,2.2-1.8,4-3.9,4L315,469.6C315,469.6,315,469.6,315,469.6z M319,221.1v240.4l152.5-1.8
	V326.4c0-58.1-47.3-105.4-105.4-105.4L319,221.1L319,221.1z"/>
<path class="st3" d="M205.2,326.4H424v137.2H205.2V326.4z"/>
<path class="st2" d="M424,467.6H205.2c-2.2,0-4-1.8-4-4V326.5c0-2.2,1.8-4,4-4H424c2.2,0,4,1.8,4,4v137.2
	C428,465.8,426.2,467.6,424,467.6z M209.2,459.6H420V330.5H209.2V459.6z"/>
<path class="st4" d="M422.8,430.1H315c-60.1,0-108.8,48.7-108.8,108.8v135.1h325.4V538.9C531.6,478.8,482.9,430.1,422.8,430.1z"/>
<path class="st2" d="M531.6,678.1H206.2c-2.2,0-4-1.8-4-4V538.9c0-62.2,50.6-112.8,112.8-112.8h107.8c62.2,0,112.8,50.6,112.8,112.8
	v135.1C535.6,676.3,533.8,678.1,531.6,678.1z M210.2,670.1h317.4V538.9c0-57.8-47-104.8-104.8-104.8H315
	c-57.8,0-104.8,47-104.8,104.8V670.1z"/>
<path class="st5" d="M371.3,430.1H263.5c-60.1,0-108.8,48.7-108.8,108.8v135.1h325.4V538.9C480.1,478.8,431.4,430.1,371.3,430.1z"/>
<path class="st6" d="M170.7,541.4c0-52.6,42.7-95.3,95.3-95.3h134.8c14,0,27.3,3.1,39.3,8.5c-18.7-15.3-42.7-24.5-68.8-24.5H263.5
	c-60.1,0-108.8,48.7-108.8,108.8v135.1h16V541.4z"/>
<path class="st2" d="M480.1,678.1H154.7c-2.2,0-4-1.8-4-4V538.9c0-62.2,50.6-112.8,112.8-112.8h107.8c62.2,0,112.8,50.6,112.8,112.8
	v135.1C484.1,676.3,482.3,678.1,480.1,678.1z M158.7,670.1h317.4V538.9c0-57.8-47-104.8-104.8-104.8H263.5
	c-57.8,0-104.8,47-104.8,104.8V670.1z"/>
<path class="st2" d="M215.4,528.4h8v145.6h-8V528.4z"/>
<path class="st2" d="M419.4,530.8h8v143.3h-8V530.8z"/>
<path class="st7" d="M317.4,492.1l47-62h-93.9L317.4,492.1z"/>
<path class="st8" d="M317.4,492.1h47.2v-62L317.4,492.1z"/>
<path class="st8" d="M317.4,492.1h-47.2v-62L317.4,492.1z"/>
<g>
	<path class="st9" d="M317.4,496.1c-1.3,0-2.4-0.6-3.2-1.6l-47-62c-0.9-1.2-1.1-2.8-0.4-4.2c0.7-1.4,2.1-2.2,3.6-2.2h93.9
		c1.5,0,2.9,0.9,3.6,2.2c0.7,1.4,0.5,3-0.4,4.2l-47,62C319.8,495.6,318.6,496.1,317.4,496.1z M278.5,434.1l38.9,51.4l38.9-51.4
		H278.5z"/>
	<path class="st2" d="M364.6,496.1h-47.2c-1.5,0-2.9-0.9-3.6-2.2c-0.7-1.4-0.5-3,0.4-4.2l47.2-62c1-1.4,2.8-1.9,4.5-1.4
		c1.6,0.5,2.7,2.1,2.7,3.8v62C368.6,494.4,366.8,496.1,364.6,496.1z M325.4,488.2h35.1V442L325.4,488.2z"/>
	<path class="st2" d="M317.4,496.1h-47.2c-2.2,0-4-1.8-4-4v-62c0-1.7,1.1-3.2,2.7-3.8c1.6-0.6,3.4,0,4.5,1.4l47.2,62
		c0.9,1.2,1.1,2.8,0.4,4.2C320.3,495.3,318.9,496.1,317.4,496.1z M274.2,488.2h35.1L274.2,442V488.2z"/>
	<path class="st2" d="M313.4,492.1h8v180.9h-8V492.1z"/>
</g>
<path class="st7" d="M424,326.4c0,60.4-49,109.4-109.4,109.4s-109.4-49-109.4-109.4s49-109.4,109.4-109.4S424,266,424,326.4z"/>
<path class="st3" d="M384.3,242.1l-0.9,1.6c0,0-50.3,77.1-160.5,100.4c-5.1,1.1-10.3,2-15.6,2.9c-0.6-3-1.1-6-1.3-9
	c-0.5-3.8-0.7-7.7-0.7-11.5c0-60.4,49-109.4,109.3-109.4c1.6,0,3.3,0,4.9,0.1C344,218.3,366.5,227.4,384.3,242.1z"/>
<path class="st10" d="M221.9,338c-0.5-3.8-0.7-7.7-0.7-11.5c0-57.8,44.8-105.1,101.6-109c-1.1-0.1-2.2-0.2-3.4-0.3
	c-1.6-0.1-3.3-0.1-4.9-0.1c-60.4,0-109.3,49.1-109.3,109.4c0,3.8,0.2,7.7,0.7,11.5c0.3,3.1,0.8,6.1,1.3,9c5.3-0.9,10.5-1.8,15.6-2.9
	C222.5,342.1,222.1,340.1,221.9,338z"/>
<path class="st3" d="M384.2,242.3l-0.8,1.4c0,0-13.4,20.5-41.4,43.5l0,0.3c0,0,34.3,29.7,81.8,34.4
	C422.4,289.8,407.3,261.4,384.2,242.3z"/>
<path class="st2" d="M314.6,439.8c-62.5,0-113.4-50.9-113.4-113.4c0-62.5,50.9-113.4,113.4-113.4c62.5,0,113.4,50.9,113.4,113.4
	C428,389,377.1,439.8,314.6,439.8z M314.6,221.1c-58.1,0-105.4,47.3-105.4,105.4s47.3,105.4,105.4,105.4S420,384.6,420,326.5
	S372.7,221.1,314.6,221.1z"/>
<path class="st2" d="M207.2,351c-1.9,0-3.6-1.3-3.9-3.2c-1.4-7.2-2.1-14.3-2.1-21.3c0-62.5,50.9-113.4,113.4-113.4
	c26.3,0,52,9.2,72.2,26c1.5,1.2,1.9,3.4,0.9,5.1l-0.9,1.5c-0.7,1.1-57.6,86.4-179,105.3C207.6,351,207.4,351,207.2,351z
	 M314.6,221.1c-58.1,0-105.4,47.3-105.4,105.4c0,5.2,0.4,10.6,1.3,16C317,324.3,370.9,254.3,379,243
	C360.6,228.8,337.9,221.1,314.6,221.1z"/>
<path class="st2" d="M423.7,325.8c-0.1,0-0.3,0-0.4,0c-48.1-4.8-82.5-34.1-84-35.3c-0.8-0.7-1.3-1.6-1.4-2.6
	c-0.1-1.3,0.4-2.9,1.4-3.8c27.1-22.3,40.5-42.4,40.6-42.6l0.7-1.2c0.6-1,1.6-1.7,2.8-1.9c1.2-0.2,2.4,0.1,3.3,0.8
	c24.7,20.5,39.7,50.5,41,82.5c0.1,1.2-0.4,2.3-1.2,3.1C425.7,325.5,424.8,325.8,423.7,325.8z M348.1,287.2
	c9.4,7,36.5,25.3,71.3,30.1c-2.3-26.4-14.6-51.2-34.5-69C380.7,254.3,368.6,269.8,348.1,287.2z"/>
<path class="st4" d="M459.5,376.7h-26.1v-65.9h26.1c8.8,0,16,7.2,16,16v34C475.5,369.6,468.3,376.7,459.5,376.7z"/>
<path class="st2" d="M459.5,380.7h-26.1c-2.2,0-4-1.8-4-4v-65.9c0-2.2,1.8-4,4-4h26.1c11,0,20,9,20,20v34
	C479.5,371.7,470.5,380.7,459.5,380.7z M437.4,372.7h22.1c6.6,0,12-5.4,12-12v-34c0-6.6-5.4-12-12-12h-22.1V372.7z"/>
<path class="st5" d="M437.4,376.7H424v-65.9h13.4c8.8,0,16,7.2,16,16v34C453.4,369.6,446.2,376.7,437.4,376.7z"/>
<path class="st2" d="M437.4,380.7H424c-2.2,0-4-1.8-4-4v-65.9c0-2.2,1.8-4,4-4h13.4c11,0,20,9,20,20v34
	C457.4,371.7,448.4,380.7,437.4,380.7z M428,372.7h9.4c6.6,0,12-5.4,12-12v-34c0-6.6-5.4-12-12-12H428V372.7z"/>
<path class="st5" d="M191.8,376.7h13.4v-65.9h-13.4c-8.8,0-16,7.2-16,16v34C175.8,369.6,183,376.7,191.8,376.7z"/>
<path class="st2" d="M205.2,380.7h-13.4c-11,0-20-9-20-20v-34c0-11,9-20,20-20h13.4c2.2,0,4,1.8,4,4v65.9
	C209.2,378.9,207.4,380.7,205.2,380.7z M191.8,314.8c-6.6,0-12,5.4-12,12v34c0,6.6,5.4,12,12,12h9.4v-57.9H191.8z"/>
<path class="st2" d="M421.1,413.1H341v-8h80.1c12.1,0,22-9.9,22-22v-6.4h8v6.4C451.1,399.7,437.6,413.1,421.1,413.1z"/>
<path class="st11" d="M326.9,390.7h30.5v18.4h-30.5V390.7z"/>
<path class="st2" d="M357.3,413.1h-30.5c-2.2,0-4-1.8-4-4v-18.4c0-2.2,1.8-4,4-4h30.5c2.2,0,4,1.8,4,4v18.4
	C361.3,411.3,359.5,413.1,357.3,413.1z M330.9,405.1h22.5v-10.4h-22.5V405.1z"/>
<path class="st12" d="M341.9,541.4h57.8v24h-57.8V541.4z"/>
<path class="st2" d="M399.8,569.4h-57.8c-2.2,0-4-1.8-4-4v-24c0-2.2,1.8-4,4-4h57.8c2.2,0,4,1.8,4,4v24
	C403.8,567.6,402,569.4,399.8,569.4z M345.9,561.4h49.8v-16h-49.8V561.4z"/>
</svg>
