<?xml version="1.0" encoding="utf-8"?>
<!-- Generator: Adobe Illustrator 24.3.0, SVG Export Plug-In . SVG Version: 6.00 Build 0)  -->
<svg version="1.1" id="레이어_1" xmlns="http://www.w3.org/2000/svg" xmlns:xlink="http://www.w3.org/1999/xlink" x="0px"
	 y="0px" viewBox="0 0 680.4 680.4" style="enable-background:new 0 0 680.4 680.4;" xml:space="preserve">
<style type="text/css">
	.st0{fill:#FFBB61;}
	.st1{fill:#CC6E2E;}
	.st2{fill:#B3450B;}
	.st3{fill:#FF6C1E;}
	.st4{fill:#52B8D9;}
	.st5{fill:#1FFFF7;stroke:#000000;stroke-width:0.8658;stroke-miterlimit:10;}
	.st6{fill:#88FFF6;}
	.st7{fill:#F9DD9D;}
	.st8{fill:#F8F3F3;}
	.st9{fill:#63312D;}
	.st10{fill:#FFD5B0;}
	.st11{fill:#82D9FF;}
	.st12{fill:#F9A287;}
	.st13{fill:#B3450B;stroke:#000000;stroke-width:0.8658;stroke-miterlimit:10;}
	.st14{fill:#FF7E38;stroke:#000000;stroke-width:0.8658;stroke-miterlimit:10;}
	.st15{fill:#FF6C1E;stroke:#000000;stroke-width:0.8658;stroke-miterlimit:10;}
	.st16{fill:#00B3AC;stroke:#000000;stroke-width:0.8658;stroke-miterlimit:10;}
	.st17{fill:#CAF4FF;}
	.st18{fill:#FFEECF;}
	.st19{fill:#EEEEEE;}
	.st20{fill:#EFC36A;}
	.st21{fill:#AF5B48;}
	.st22{fill:#FFC8BB;}
	.st23{fill:#0277BD;}
	.st24{fill:#84DBFF;}
	.st25{fill:#DB785A;}
	.st26{fill:#D1D1D1;}
</style>
<circle class="st0" cx="338" cy="317.3" r="314.8"/>
<path class="st5" d="M138.5,673.6h-18.1c-4.4,0-8-3.6-8-8V257.1c0-4.4,3.6-8,8-8h18.1c4.4,0,8,3.6,8,8v408.5
	C146.5,670,142.9,673.6,138.5,673.6z"/>
<path class="st2" d="M138.5,677.6h-18.1c-6.6,0-12-5.4-12-12V257.1c0-6.6,5.4-12,12-12h18.1c6.6,0,12,5.4,12,12v408.5
	C150.5,672.2,145.1,677.6,138.5,677.6z M120.4,253.1c-2.2,0-4,1.8-4,4v408.5c0,2.2,1.8,4,4,4h18.1c2.2,0,4-1.8,4-4V257.1
	c0-2.2-1.8-4-4-4H120.4z"/>
<path class="st4" d="M241.5,673.6h-18.1c-4.4,0-8-3.6-8-8V257.1c0-4.4,3.6-8,8-8h18.1c4.4,0,8,3.6,8,8v408.5
	C249.5,670,245.9,673.6,241.5,673.6z"/>
<path class="st2" d="M241.5,677.6h-18.1c-6.6,0-12-5.4-12-12V257.1c0-6.6,5.4-12,12-12h18.1c6.6,0,12,5.4,12,12v408.5
	C253.5,672.2,248.1,677.6,241.5,677.6z M223.4,253.1c-2.2,0-4,1.8-4,4v408.5c0,2.2,1.8,4,4,4h18.1c2.2,0,4-1.8,4-4V257.1
	c0-2.2-1.8-4-4-4H223.4z"/>
<path class="st8" d="M146.5,445.1h398v32.5h-398V445.1z"/>
<path class="st2" d="M437.5,481.6h-291c-2.2,0-4-1.8-4-4v-32.5c0-2.2,1.8-4,4-4h291c2.2,0,4,1.8,4,4v32.5
	C441.5,479.8,439.7,481.6,437.5,481.6z M150.5,473.6h283v-24.5h-283V473.6z"/>
<path class="st8" d="M146.5,289.1h394v32.5h-394V289.1z"/>
<path class="st2" d="M437.5,325.6h-291c-2.2,0-4-1.8-4-4v-32.5c0-2.2,1.8-4,4-4h291c2.2,0,4,1.8,4,4v32.5
	C441.5,323.8,439.7,325.6,437.5,325.6z M150.5,317.6h283v-24.5h-283V317.6z"/>
<path class="st8" d="M146.5,601.1h291v32.5h-291V601.1z"/>
<path class="st2" d="M437.5,637.6h-291c-2.2,0-4-1.8-4-4v-32.5c0-2.2,1.8-4,4-4h291c2.2,0,4,1.8,4,4v32.5
	C441.5,635.8,439.7,637.6,437.5,637.6z M150.5,629.6h283v-24.5h-283V629.6z"/>
<path class="st5" d="M463.6,673.6h-18.1c-4.4,0-8-3.6-8-8V257.1c0-4.4,3.6-8,8-8h18.1c4.4,0,8,3.6,8,8v408.5
	C471.6,670,468.1,673.6,463.6,673.6z"/>
<path class="st2" d="M463.6,677.6h-18.1c-6.6,0-12-5.4-12-12V257.1c0-6.6,5.4-12,12-12h18.1c6.6,0,12,5.4,12,12v408.5
	C475.6,672.2,470.3,677.6,463.6,677.6z M445.5,253.1c-2.2,0-4,1.8-4,4v408.5c0,2.2,1.8,4,4,4h18.1c2.2,0,4-1.8,4-4V257.1
	c0-2.2-1.8-4-4-4H445.5z"/>
<path class="st4" d="M566.6,673.6h-18.1c-4.4,0-8-3.6-8-8V257.1c0-4.4,3.6-8,8-8h18.1c4.4,0,8,3.6,8,8v408.5
	C574.6,670,571.1,673.6,566.6,673.6z"/>
<g>
	<path class="st2" d="M566.6,677.6h-18.1c-6.6,0-12-5.4-12-12V257.1c0-6.6,5.4-12,12-12h18.1c6.6,0,12,5.4,12,12v408.5
		C578.6,672.2,573.3,677.6,566.6,677.6z M548.5,253.1c-2.2,0-4,1.8-4,4v408.5c0,2.2,1.8,4,4,4h18.1c2.2,0,4-1.8,4-4V257.1
		c0-2.2-1.8-4-4-4H548.5z"/>
	<path class="st2" d="M540.5,481.6h-68.9c-2.2,0-4-1.8-4-4v-32.5c0-2.2,1.8-4,4-4h68.9c2.2,0,4,1.8,4,4v32.5
		C544.5,479.8,542.7,481.6,540.5,481.6z M475.6,473.6h60.9v-24.5h-60.9V473.6z"/>
	<path class="st2" d="M540.5,325.6h-68.9c-2.2,0-4-1.8-4-4v-32.5c0-2.2,1.8-4,4-4h68.9c2.2,0,4,1.8,4,4v32.5
		C544.5,323.8,542.7,325.6,540.5,325.6z M475.6,317.6h60.9v-24.5h-60.9V317.6z"/>
	<path class="st2" d="M540.5,637.6h-68.9c-2.2,0-4-1.8-4-4v-32.5c0-2.2,1.8-4,4-4h68.9c2.2,0,4,1.8,4,4v32.5
		C544.5,635.8,542.7,637.6,540.5,637.6z M475.6,629.6h60.9v-24.5h-60.9V629.6z"/>
</g>
<path class="st20" d="M337.7,511.2h99.2v89.9h-99.2V511.2z"/>
<path class="st2" d="M436.9,605.1h-99.2c-2.2,0-4-1.8-4-4v-89.9c0-2.2,1.8-4,4-4h99.2c2.2,0,4,1.8,4,4v89.9
	C440.9,603.3,439.1,605.1,436.9,605.1z M341.7,597.1h91.2v-81.9h-91.2V597.1z"/>
<path class="st7" d="M310.8,511.2H410v89.9h-99.2V511.2z"/>
<path class="st18" d="M326.8,527.2H410v-16h-99.2v89.9h16V527.2z"/>
<path class="st2" d="M410,605.1h-99.2c-2.2,0-4-1.8-4-4v-89.9c0-2.2,1.8-4,4-4H410c2.2,0,4,1.8,4,4v89.9
	C414,603.3,412.2,605.1,410,605.1z M314.8,597.1H406v-81.9h-91.2V597.1z"/>
<path class="st8" d="M349.3,511.2h22.1v30h-22.1V511.2z"/>
<path class="st2" d="M371.5,545.2h-22.1c-2.2,0-4-1.8-4-4v-30c0-2.2,1.8-4,4-4h22.1c2.2,0,4,1.8,4,4v30
	C375.5,543.4,373.7,545.2,371.5,545.2z M353.3,537.2h14.1v-22h-14.1V537.2z"/>
<path class="st20" d="M276.4,355.2h99.2v89.9h-99.2V355.2z"/>
<path class="st2" d="M375.6,449.1h-99.2c-2.2,0-4-1.8-4-4v-89.9c0-2.2,1.8-4,4-4h99.2c2.2,0,4,1.8,4,4v89.9
	C379.6,447.3,377.8,449.1,375.6,449.1z M280.4,441.1h91.2v-81.9h-91.2V441.1z"/>
<path class="st7" d="M249.5,355.2h99.2v89.9h-99.2V355.2z"/>
<path class="st18" d="M265.5,371.2h83.2v-16h-99.2v89.9h16V371.2z"/>
<path class="st2" d="M348.7,449.1h-99.2c-2.2,0-4-1.8-4-4v-89.9c0-2.2,1.8-4,4-4h99.2c2.2,0,4,1.8,4,4v89.9
	C352.7,447.3,351,449.1,348.7,449.1z M253.5,441.1h91.2v-81.9h-91.2V441.1z"/>
<path class="st8" d="M288.1,355.2h22.1v30h-22.1V355.2z"/>
<path class="st2" d="M310.2,389.2h-22.1c-2.2,0-4-1.8-4-4v-30c0-2.2,1.8-4,4-4h22.1c2.2,0,4,1.8,4,4v30
	C314.2,387.4,312.4,389.2,310.2,389.2z M292.1,381.2h14.1v-22h-14.1V381.2z"/>
<path class="st20" d="M173.4,511.2h99.2v89.9h-99.2V511.2z"/>
<path class="st2" d="M272.6,605.1h-99.2c-2.2,0-4-1.8-4-4v-89.9c0-2.2,1.8-4,4-4h99.2c2.2,0,4,1.8,4,4v89.9
	C276.6,603.3,274.8,605.1,272.6,605.1z M177.4,597.1h91.2v-81.9h-91.2V597.1z"/>
<path class="st7" d="M146.5,511.2h99.2v89.9h-99.2V511.2z"/>
<path class="st18" d="M162.5,527.2h83.2v-16h-99.2v89.9h16V527.2z"/>
<path class="st2" d="M245.7,605.1h-99.2c-2.2,0-4-1.8-4-4v-89.9c0-2.2,1.8-4,4-4h99.2c2.2,0,4,1.8,4,4v89.9
	C249.7,603.3,248,605.1,245.7,605.1z M150.5,597.1h91.2v-81.9h-91.2V597.1z"/>
<path class="st8" d="M185.1,511.2h22.1v30h-22.1V511.2z"/>
<path class="st2" d="M207.2,545.2h-22.1c-2.2,0-4-1.8-4-4v-30c0-2.2,1.8-4,4-4h22.1c2.2,0,4,1.8,4,4v30
	C211.2,543.4,209.4,545.2,207.2,545.2z M189.1,537.2h14.1v-22h-14.1V537.2z"/>
<path class="st21" d="M318.9,211.3h99.2v77.8h-99.2V211.3z"/>
<path class="st2" d="M418.1,293.1h-99.2c-2.2,0-4-1.8-4-4v-77.8c0-2.2,1.8-4,4-4h99.2c2.2,0,4,1.8,4,4v77.8
	C422.1,291.3,420.3,293.1,418.1,293.1z M322.9,285.1h91.2v-69.8h-91.2V285.1z"/>
<path class="st3" d="M292,211.3h99.2v77.8H292V211.3z"/>
<path class="st22" d="M308,227.3h83.2v-16H292v77.8h16V227.3z"/>
<path class="st2" d="M391.2,293.1H292c-2.2,0-4-1.8-4-4v-77.8c0-2.2,1.8-4,4-4h99.2c2.2,0,4,1.8,4,4v77.8
	C395.2,291.3,393.4,293.1,391.2,293.1z M296,285.1h91.2v-69.8H296V285.1z"/>
<path class="st8" d="M330.6,211.3h22.1v28.8h-22.1V211.3z"/>
<path class="st2" d="M352.7,244.1h-22.1c-2.2,0-4-1.8-4-4v-28.8c0-2.2,1.8-4,4-4h22.1c2.2,0,4,1.8,4,4v28.8
	C356.7,242.3,354.9,244.1,352.7,244.1z M334.6,236.1h14.1v-20.8h-14.1V236.1z"/>
</svg>
