<?xml version="1.0" encoding="utf-8"?>
<!-- Generator: Adobe Illustrator 24.3.0, SVG Export Plug-In . SVG Version: 6.00 Build 0)  -->
<svg version="1.1" id="레이어_1" xmlns="http://www.w3.org/2000/svg" xmlns:xlink="http://www.w3.org/1999/xlink" x="0px"
	 y="0px" viewBox="0 0 680.4 680.4" style="enable-background:new 0 0 680.4 680.4;" xml:space="preserve">
<style type="text/css">
	.st0{fill:#FFBB61;}
	.st1{fill:#CC6E2E;}
	.st2{fill:#B3450B;}
	.st3{fill:#FF6C1E;}
	.st4{fill:#52B8D9;}
	.st5{fill:#1FFFF7;stroke:#000000;stroke-width:0.8658;stroke-miterlimit:10;}
	.st6{fill:#88FFF6;}
	.st7{fill:#F9DD9D;}
	.st8{fill:#F8F3F3;}
	.st9{fill:#63312D;}
	.st10{fill:#FFD5B0;}
	.st11{fill:#82D9FF;}
	.st12{fill:#F9A287;}
	.st13{fill:#B3450B;stroke:#000000;stroke-width:0.8658;stroke-miterlimit:10;}
	.st14{fill:#FF7E38;stroke:#000000;stroke-width:0.8658;stroke-miterlimit:10;}
	.st15{fill:#FF6C1E;stroke:#000000;stroke-width:0.8658;stroke-miterlimit:10;}
	.st16{fill:#00B3AC;stroke:#000000;stroke-width:0.8658;stroke-miterlimit:10;}
	.st17{fill:#CAF4FF;}
	.st18{fill:#FFEECF;}
	.st19{fill:#EEEEEE;}
	.st20{fill:#EFC36A;}
	.st21{fill:#AF5B48;}
	.st22{fill:#FFC8BB;}
	.st23{fill:#0277BD;}
	.st24{fill:#84DBFF;}
	.st25{fill:#DB785A;}
	.st26{fill:#D1D1D1;}
</style>
<circle class="st0" cx="338" cy="317.3" r="314.8"/>
<path class="st4" d="M247.3,672.3c25.4,0,46-20.6,46-46c0-25.4-20.6-46-46-46h-25.9v91.9H247.3z"/>
<path class="st2" d="M247.3,676.3h-25.9c-2.2,0-4-1.8-4-4v-91.9c0-2.2,1.8-4,4-4h25.9c27.6,0,50,22.4,50,50
	C297.3,653.8,274.9,676.3,247.3,676.3z M225.5,668.3h21.9c23.1,0,42-18.8,42-42c0-23.1-18.8-42-42-42h-21.9V668.3z"/>
<path class="st24" d="M267.4,626.3c0,25.4-20.6,46-46,46c-25.4,0-46-20.6-46-46c0-25.4,20.6-46,46-46
	C246.8,580.3,267.4,600.9,267.4,626.3z"/>
<path class="st9" d="M221.5,676.3c-27.6,0-50-22.4-50-50c0-27.6,22.4-50,50-50c27.6,0,50,22.4,50,50
	C271.4,653.8,249,676.3,221.5,676.3z M221.5,584.3c-23.1,0-42,18.8-42,42c0,23.1,18.8,42,42,42c23.1,0,42-18.8,42-42
	C263.4,603.1,244.6,584.3,221.5,584.3z"/>
<path class="st8" d="M239.4,626.3c0,9.9-8.1,18-18,18c-9.9,0-18-8.1-18-18c0-9.9,8.1-18,18-18C231.4,608.3,239.4,616.4,239.4,626.3z
	"/>
<path class="st9" d="M221.5,648.3c-12.1,0-22-9.9-22-22c0-12.1,9.9-22,22-22c12.1,0,22,9.9,22,22
	C243.4,638.4,233.6,648.3,221.5,648.3z M221.5,612.3c-7.7,0-14,6.3-14,14c0,7.7,6.3,14,14,14c7.7,0,14-6.3,14-14
	C235.4,618.6,229.2,612.3,221.5,612.3z"/>
<path class="st4" d="M491,672.3c25.4,0,46-20.6,46-46c0-25.4-20.6-46-46-46h-25.9v91.9H491z"/>
<path class="st2" d="M491,676.3h-25.9c-2.2,0-4-1.8-4-4v-91.9c0-2.2,1.8-4,4-4H491c27.6,0,50,22.4,50,50
	C541,653.8,518.5,676.3,491,676.3z M469.1,668.3H491c23.1,0,42-18.8,42-42c0-23.1-18.8-42-42-42h-21.9V668.3z"/>
<path class="st24" d="M511.1,626.3c0,25.4-20.6,46-46,46c-25.4,0-46-20.6-46-46c0-25.4,20.6-46,46-46
	C490.5,580.3,511.1,600.9,511.1,626.3z"/>
<path class="st9" d="M465.1,676.3c-27.6,0-50-22.4-50-50c0-27.6,22.4-50,50-50c27.6,0,50,22.4,50,50
	C515.1,653.8,492.7,676.3,465.1,676.3z M465.1,584.3c-23.1,0-42,18.8-42,42c0,23.1,18.8,42,42,42s42-18.8,42-42
	C507.1,603.1,488.3,584.3,465.1,584.3z"/>
<path class="st8" d="M483.1,626.3c0,9.9-8.1,18-18,18s-18-8.1-18-18c0-9.9,8.1-18,18-18S483.1,616.4,483.1,626.3z"/>
<path class="st9" d="M465.1,648.3c-12.1,0-22-9.9-22-22c0-12.1,9.9-22,22-22c12.1,0,22,9.9,22,22
	C487.1,638.4,477.2,648.3,465.1,648.3z M465.1,612.3c-7.7,0-14,6.3-14,14c0,7.7,6.3,14,14,14c7.7,0,14-6.3,14-14
	C479.1,618.6,472.8,612.3,465.1,612.3z"/>
<path class="st8" d="M501,626.3c0,9.9-8.1,18-18,18s-18-8.1-18-18c0-9.9,8.1-18,18-18S501,616.4,501,626.3z"/>
<path class="st9" d="M483,648.3c-12.1,0-22-9.9-22-22c0-12.1,9.9-22,22-22s22,9.9,22,22C505,638.4,495.1,648.3,483,648.3z
	 M483,612.3c-7.7,0-14,6.3-14,14c0,7.7,6.3,14,14,14c7.7,0,14-6.3,14-14C497,618.6,490.7,612.3,483,612.3z"/>
<path class="st25" d="M431.2,595.3H176.7V390.5c0-8.8,7.2-16,16-16h222.6c8.8,0,16,7.2,16,16V595.3z"/>
<path class="st2" d="M431.2,599.3H176.7c-2.2,0-4-1.8-4-4V390.5c0-11,9-20,20-20h222.6c11,0,20,9,20,20v204.9
	C435.2,597.6,433.4,599.3,431.2,599.3z M180.7,591.3h246.6V390.5c0-6.6-5.4-12-12-12H192.6c-6.6,0-12,5.4-12,12V591.3z"/>
<path class="st3" d="M383.2,595.3H128.7V390.5c0-8.8,7.2-16,16-16h222.6c8.8,0,16,7.2,16,16V595.3z"/>
<path class="st22" d="M144.7,398.5c0-4.4,3.6-8,8-8h230.6c0-8.8-7.2-16-16-16H144.7c-8.8,0-16,7.2-16,16v204.9h16V398.5z"/>
<path class="st2" d="M383.2,599.3H128.7c-2.2,0-4-1.8-4-4V390.5c0-11,9-20,20-20h222.6c11,0,20,9,20,20v204.9
	C387.2,597.6,385.5,599.3,383.2,599.3z M132.7,591.3h246.6V390.5c0-6.6-5.4-12-12-12H144.7c-6.6,0-12,5.4-12,12V591.3z"/>
<path class="st4" d="M569.1,595.3H431.2V457.5h83.9c4.8,0,9.4,2.3,12.3,6.1l38.5,50.8c2,2.7,3.1,6,3.1,9.3V595.3z"/>
<path class="st2" d="M569.1,599.3H431.2c-2.2,0-4-1.8-4-4V457.5c0-2.2,1.8-4,4-4h83.9c6,0,11.8,2.9,15.5,7.7l38.5,50.8
	c2.5,3.4,3.9,7.5,3.9,11.7v71.6C573.1,597.6,571.3,599.3,569.1,599.3z M435.2,591.3h129.9v-67.6c0-2.5-0.8-4.9-2.3-6.9L524.3,466
	c-2.1-2.8-5.5-4.5-9.1-4.5h-79.9V591.3z"/>
<path class="st26" d="M566,514.4L538.4,478h-79.2v45.2H569C568.9,520.1,567.9,517,566,514.4z"/>
<path class="st2" d="M569,527.3H459.2c-2.2,0-4-1.8-4-4V478c0-2.2,1.8-4,4-4h79.2c1.2,0,2.4,0.6,3.2,1.6l27.6,36.4
	c2.4,3.2,3.7,7,3.9,11.2c0,1.1-0.4,2.1-1.1,2.9C571.1,526.8,570.1,527.3,569,527.3z M463.2,519.3h101c-0.4-0.9-0.8-1.7-1.4-2.5
	L536.4,482h-73.2V519.3z"/>
<path class="st5" d="M521.1,595.3H383.2V457.5h83.9c4.8,0,9.4,2.3,12.3,6.1l38.5,50.8c2,2.7,3.1,6,3.1,9.3V595.3z"/>
<path class="st17" d="M399.2,473.4h83.9c1.5,0,2.9,0.3,4.3,0.7l-8-10.6c-2.9-3.8-7.5-6.1-12.3-6.1h-83.9v137.9h16V473.4z"/>
<path class="st2" d="M521.1,599.3H383.2c-2.2,0-4-1.8-4-4V457.5c0-2.2,1.8-4,4-4h83.9c6,0,11.8,2.9,15.5,7.7l38.5,50.8
	c2.5,3.4,3.9,7.5,3.9,11.7v71.6C525.1,597.6,523.3,599.3,521.1,599.3z M387.2,591.3h129.9v-67.6c0-2.5-0.8-4.9-2.3-6.9L476.3,466
	c-2.1-2.8-5.5-4.5-9.1-4.5h-79.9V591.3z"/>
<path class="st26" d="M570.3,622.3H162.5v-27h407.7c4.4,0,8,3.6,8,8v11C578.3,618.8,574.7,622.3,570.3,622.3z"/>
<path class="st2" d="M570.3,626.3H162.5c-2.2,0-4-1.8-4-4v-27c0-2.2,1.8-4,4-4h407.7c6.6,0,12,5.4,12,12v11
	C582.3,621,576.9,626.3,570.3,626.3z M166.5,618.3h403.7c2.2,0,4-1.8,4-4v-11c0-2.2-1.8-4-4-4H166.5V618.3z"/>
<path class="st8" d="M524,622.3H124.3c-4.4,0-8-3.6-8-8v-11c0-4.4,3.6-8,8-8H524c4.4,0,8,3.6,8,8v11
	C532,618.8,528.4,622.3,524,622.3z"/>
<path class="st2" d="M524,626.3H124.3c-6.6,0-12-5.4-12-12v-11c0-6.6,5.4-12,12-12H524c6.6,0,12,5.4,12,12v11
	C536,621,530.6,626.3,524,626.3z M124.3,599.3c-2.2,0-4,1.8-4,4v11c0,2.2,1.8,4,4,4H524c2.2,0,4-1.8,4-4v-11c0-2.2-1.8-4-4-4H124.3z
	"/>
<path class="st8" d="M518,514.4L490.4,478h-79.2v45.2h109.8C521,520.1,519.9,517,518,514.4z"/>
<path class="st2" d="M521.1,527.3H411.2c-2.2,0-4-1.8-4-4V478c0-2.2,1.8-4,4-4h79.2c1.2,0,2.4,0.6,3.2,1.6l27.6,36.4
	c2.4,3.2,3.7,7,3.9,11.2c0,1.1-0.4,2.1-1.1,2.9C523.2,526.8,522.1,527.3,521.1,527.3z M415.2,519.3h101c-0.4-0.9-0.8-1.7-1.4-2.5
	L488.4,482h-73.2V519.3z"/>
<path class="st2" d="M407.2,523.3h8v70.3h-8V523.3z"/>
<path class="st2" d="M427,536.4h19.2v8H427V536.4z"/>
<path class="st24" d="M476.3,512.4h19.6v30.7h-19.6V512.4z"/>
<path class="st2" d="M495.9,547.2h-19.6c-2.2,0-4-1.8-4-4v-30.7c0-2.2,1.8-4,4-4h19.6c2.2,0,4,1.8,4,4v30.7
	C499.9,545.4,498.1,547.2,495.9,547.2z M480.3,539.2h11.6v-22.7h-11.6V539.2z"/>
<path class="st4" d="M221.5,672.3c25.4,0,46-20.6,46-46c0-25.4-20.6-46-46-46h-25.9v91.9H221.5z"/>
<path class="st2" d="M221.5,676.3h-25.9c-2.2,0-4-1.8-4-4v-91.9c0-2.2,1.8-4,4-4h25.9c27.6,0,50,22.4,50,50
	C271.4,653.8,249,676.3,221.5,676.3z M199.6,668.3h21.9c23.1,0,42-18.8,42-42c0-23.1-18.8-42-42-42h-21.9V668.3z"/>
<path class="st5" d="M241.6,626.3c0,25.4-20.6,46-46,46c-25.4,0-46-20.6-46-46c0-25.4,20.6-46,46-46
	C221,580.3,241.6,600.9,241.6,626.3z"/>
<path class="st2" d="M195.6,676.3c-27.6,0-50-22.4-50-50c0-27.6,22.4-50,50-50c27.6,0,50,22.4,50,50
	C245.6,653.8,223.1,676.3,195.6,676.3z M195.6,584.3c-23.1,0-42,18.8-42,42c0,23.1,18.8,42,42,42s42-18.8,42-42
	C237.6,603.1,218.7,584.3,195.6,584.3z"/>
<path class="st8" d="M213.6,626.3c0,9.9-8.1,18-18,18c-9.9,0-18-8.1-18-18c0-9.9,8.1-18,18-18C205.5,608.3,213.6,616.4,213.6,626.3z
	"/>
<path class="st2" d="M195.6,648.3c-12.1,0-22-9.9-22-22c0-12.1,9.9-22,22-22c12.1,0,22,9.9,22,22
	C217.6,638.4,207.7,648.3,195.6,648.3z M195.6,612.3c-7.7,0-14,6.3-14,14c0,7.7,6.3,14,14,14c7.7,0,14-6.3,14-14
	C209.6,618.6,203.3,612.3,195.6,612.3z"/>
<path class="st4" d="M465.1,672.3c25.4,0,46-20.6,46-46c0-25.4-20.6-46-46-46h-25.9v91.9H465.1z"/>
<path class="st2" d="M465.1,676.3h-25.9c-2.2,0-4-1.8-4-4v-91.9c0-2.2,1.8-4,4-4h25.9c27.6,0,50,22.4,50,50
	C515.1,653.8,492.7,676.3,465.1,676.3z M443.3,668.3h21.9c23.1,0,42-18.8,42-42c0-23.1-18.8-42-42-42h-21.9V668.3z"/>
<path class="st5" d="M485.2,626.3c0,25.4-20.6,46-46,46c-25.4,0-46-20.6-46-46c0-25.4,20.6-46,46-46
	C464.7,580.3,485.2,600.9,485.2,626.3z"/>
<path class="st2" d="M439.3,676.3c-27.6,0-50-22.4-50-50c0-27.6,22.4-50,50-50c27.6,0,50,22.4,50,50
	C489.2,653.8,466.8,676.3,439.3,676.3z M439.3,584.3c-23.1,0-42,18.8-42,42c0,23.1,18.8,42,42,42s42-18.8,42-42
	C481.2,603.1,462.4,584.3,439.3,584.3z"/>
<path class="st8" d="M457.3,626.3c0,9.9-8.1,18-18,18s-18-8.1-18-18c0-9.9,8.1-18,18-18S457.3,616.4,457.3,626.3z"/>
<g>
	<path class="st2" d="M439.3,648.3c-12.1,0-22-9.9-22-22c0-12.1,9.9-22,22-22c12.1,0,22,9.9,22,22
		C461.2,638.4,451.4,648.3,439.3,648.3z M439.3,612.3c-7.7,0-14,6.3-14,14c0,7.7,6.3,14,14,14s14-6.3,14-14
		C453.3,618.6,447,612.3,439.3,612.3z"/>
	<path class="st2" d="M168.2,412.5H223v8h-54.8V412.5z"/>
	<path class="st2" d="M168.2,433H223v8h-54.8V433z"/>
	<path class="st2" d="M168.2,453.5H223v8h-54.8V453.5z"/>
	<path class="st2" d="M431.4,478h8v45.3h-8V478z"/>
</g>
</svg>
