<?xml version="1.0" encoding="utf-8"?>
<!-- Generator: Adobe Illustrator 24.3.0, SVG Export Plug-In . SVG Version: 6.00 Build 0)  -->
<svg version="1.1" id="레이어_1" xmlns="http://www.w3.org/2000/svg" xmlns:xlink="http://www.w3.org/1999/xlink" x="0px"
	 y="0px" viewBox="0 0 680.4 680.4" style="enable-background:new 0 0 680.4 680.4;" xml:space="preserve">
<style type="text/css">
	.st0{fill:#FFBB61;}
	.st1{fill:#CC6E2E;}
	.st2{fill:#B3450B;}
	.st3{fill:#FF6C1E;}
	.st4{fill:#52B8D9;}
	.st5{fill:#1FFFF7;stroke:#000000;stroke-width:0.8658;stroke-miterlimit:10;}
	.st6{fill:#88FFF6;}
	.st7{fill:#F9DD9D;}
	.st8{fill:#F8F3F3;}
	.st9{fill:#63312D;}
	.st10{fill:#FFD5B0;}
	.st11{fill:#82D9FF;}
	.st12{fill:#F9A287;}
	.st13{fill:#B3450B;stroke:#000000;stroke-width:0.8658;stroke-miterlimit:10;}
	.st14{fill:#FF7E38;stroke:#000000;stroke-width:0.8658;stroke-miterlimit:10;}
	.st15{fill:#FF6C1E;stroke:#000000;stroke-width:0.8658;stroke-miterlimit:10;}
	.st16{fill:#00B3AC;stroke:#000000;stroke-width:0.8658;stroke-miterlimit:10;}
	.st17{fill:#CAF4FF;}
	.st18{fill:#FFEECF;}
	.st19{fill:#EEEEEE;}
	.st20{fill:#EFC36A;}
	.st21{fill:#AF5B48;}
	.st22{fill:#FFC8BB;}
	.st23{fill:#0277BD;}
	.st24{fill:#84DBFF;}
	.st25{fill:#DB785A;}
	.st26{fill:#D1D1D1;}
</style>
<circle class="st0" cx="338" cy="317.3" r="314.8"/>
<path class="st4" d="M494,674.8h-41.9V236.9H494c8.8,0,16,7.2,16,16v405.9C510,667.7,502.8,674.8,494,674.8z"/>
<path class="st2" d="M494,678.8h-41.9c-2.2,0-4-1.8-4-4V236.9c0-2.2,1.8-4,4-4H494c11,0,20,9,20,20v405.9
	C514,669.9,505,678.8,494,678.8z M456.1,670.8H494c6.6,0,12-5.4,12-12V252.9c0-6.6-5.4-12-12-12h-37.9V670.8z"/>
<path class="st5" d="M468.1,674.8H164.3c-8.8,0-16-7.2-16-16V252.9c0-8.8,7.2-16,16-16h303.7c8.8,0,16,7.2,16,16v405.9
	C484.1,667.7,476.9,674.8,468.1,674.8z"/>
<path class="st17" d="M172.3,252.9h311.7c0-8.8-7.2-16-16-16H164.3c-8.8,0-16,7.2-16,16v405.9c0,8.8,7.2,16,16,16V260.9
	C164.3,256.5,167.9,252.9,172.3,252.9z"/>
<path class="st2" d="M468.1,678.8H164.3c-11,0-20-9-20-20V252.9c0-11,9-20,20-20h303.7c11,0,20,9,20,20v405.9
	C488,669.9,479.1,678.8,468.1,678.8z M164.3,240.9c-6.6,0-12,5.4-12,12v405.9c0,6.6,5.4,12,12,12h303.7c6.6,0,12-5.4,12-12V252.9
	c0-6.6-5.4-12-12-12H164.3z"/>
<path class="st8" d="M180.3,268.9h271.8v373.9H180.3V268.9z"/>
<path class="st2" d="M452.1,646.8H180.3c-2.2,0-4-1.8-4-4V268.9c0-2.2,1.8-4,4-4h271.8c2.2,0,4,1.8,4,4v373.9
	C456.1,645.1,454.3,646.8,452.1,646.8z M184.3,638.9h263.8V272.9H184.3V638.9z"/>
<path class="st7" d="M238.2,212.8h165.6v75.1H238.2V212.8z"/>
<path class="st18" d="M254.2,228.8h149.6v-16H238.2v75.1h16V228.8z"/>
<path class="st2" d="M403.8,291.9H238.2c-2.2,0-4-1.8-4-4v-75.1c0-2.2,1.8-4,4-4h165.6c2.2,0,4,1.8,4,4v75.1
	C407.8,290.1,406,291.9,403.8,291.9z M242.2,283.9h157.6v-67.1H242.2V283.9z"/>
<path class="st7" d="M357.8,544.5l36.9-12l200-200c10.7-10.7,10.7-27.9,0-38.6c-10.7-10.7-27.9-10.7-38.6,0l-200,200l-12,36.8
	c-1.3,3.9-0.2,8.2,2.7,11.1C349.6,544.8,353.9,545.8,357.8,544.5z"/>
<path class="st15" d="M552.7,374.5l41-41c9.5-9.5,11.8-24.6,4.2-35.6c-10-14.4-30-15.8-41.8-3.9l-41.9,41.9L552.7,374.5z"/>
<path class="st5" d="M374.3,475.7l15.4-15.4l38.6,38.6l-15.4,15.4L374.3,475.7z"/>
<g>
	<path class="st2" d="M354.4,549.1c-3.9,0-7.7-1.5-10.5-4.4c-4-4-5.4-9.8-3.6-15.2l12-36.8c0.2-0.6,0.5-1.1,1-1.6l200-200
		c11.8-11.8,32.4-11.8,44.2,0c5.9,5.9,9.2,13.8,9.2,22.1c0,8.4-3.3,16.2-9.2,22.1l-200,200c-0.4,0.4-1,0.8-1.6,1l-36.8,12
		C357.5,548.8,355.9,549.1,354.4,549.1z M359.6,496.1L347.9,532c-0.8,2.5-0.2,5.2,1.7,7c1.8,1.8,4.5,2.5,7,1.7l35.9-11.7
		l199.3-199.3c4.4-4.4,6.8-10.2,6.8-16.5c0-6.2-2.4-12.1-6.8-16.5c-9.1-9.1-23.8-9.1-32.9,0L359.6,496.1z"/>
	<path class="st2" d="M511.3,338.7l5.7-5.7l38.6,38.6l-5.7,5.7L511.3,338.7z"/>
	<path class="st2" d="M387.4,463.6l5.7-5.7l37.3,37.3l-5.7,5.7L387.4,463.6z"/>
	<path class="st2" d="M372,479.1l5.7-5.7l37.3,37.3l-5.7,5.7L372,479.1z"/>
</g>
<path class="st5" d="M497.2,427.4c-5-5-5-13.1,0-18.1l55.1-55.1c5-5,13.1-5,18.1,0c5,5,5,13.1,0,18.1l-55.1,55.1
	C510.3,432.5,502.2,432.5,497.2,427.4z"/>
<path class="st2" d="M506.3,435.2c-4.3,0-8.6-1.6-11.9-4.9c-6.5-6.5-6.5-17.2,0-23.8l55.1-55.1c6.3-6.3,17.4-6.3,23.8,0
	c3.2,3.2,4.9,7.4,4.9,11.9c0,4.5-1.7,8.7-4.9,11.9l-55.1,55.1C514.9,433.6,510.6,435.2,506.3,435.2z M500,424.6
	c3.4,3.4,9,3.4,12.5,0l55.1-55.1c1.7-1.7,2.6-3.9,2.6-6.2c0-2.4-0.9-4.6-2.6-6.2c-3.3-3.3-9.1-3.3-12.5,0L500,412.2
	C496.6,415.6,496.6,421.2,500,424.6z"/>
<path class="st12" d="M221.3,357.9h43v43h-43V357.9z"/>
<path class="st2" d="M264.2,404.9h-43c-2.2,0-4-1.8-4-4v-43c0-2.2,1.8-4,4-4h43c2.2,0,4,1.8,4,4v43
	C268.2,403.1,266.5,404.9,264.2,404.9z M225.3,396.9h35v-35h-35V396.9z"/>
<path class="st2" d="M242.8,387.8C242.7,387.8,242.7,387.8,242.8,387.8c-1.2,0-2.4-0.6-3.1-1.5l-19-23.5l6.2-5l15.9,19.7l28.9-34.8
	l6.2,5.1l-32,38.6C245.1,387.3,243.9,387.8,242.8,387.8z"/>
<path class="st2" d="M297.7,375.4h115.4v8H297.7V375.4z"/>
<path class="st12" d="M221.3,440.8h43v43h-43V440.8z"/>
<path class="st2" d="M264.2,487.7h-43c-2.2,0-4-1.8-4-4v-43c0-2.2,1.8-4,4-4h43c2.2,0,4,1.8,4,4v43
	C268.2,485.9,266.5,487.7,264.2,487.7z M225.3,479.7h35v-35h-35V479.7z"/>
<path class="st2" d="M242.8,470.6C242.7,470.6,242.7,470.6,242.8,470.6c-1.2,0-2.4-0.6-3.1-1.5l-19-23.5l6.2-5l15.9,19.7l28.9-34.8
	l6.2,5.1l-32,38.6C245.1,470.1,243.9,470.6,242.8,470.6z"/>
<path class="st2" d="M297.7,458.2h90v8h-90V458.2z"/>
<path class="st12" d="M221.3,523.6h43v43h-43V523.6z"/>
<path class="st2" d="M264.2,570.5h-43c-2.2,0-4-1.8-4-4v-43c0-2.2,1.8-4,4-4h43c2.2,0,4,1.8,4,4v43
	C268.2,568.7,266.5,570.5,264.2,570.5z M225.3,562.5h35v-35h-35V562.5z"/>
<path class="st2" d="M242.8,553.4C242.7,553.4,242.7,553.4,242.8,553.4c-1.2,0-2.4-0.6-3.1-1.5l-19-23.5l6.2-5l15.9,19.7l28.9-34.8
	l6.2,5.1l-32,38.6C245.1,552.9,243.9,553.4,242.8,553.4z"/>
<path class="st2" d="M297.7,541h56.5v8h-56.5V541z"/>
</svg>
